<svg xmlns="http://www.w3.org/2000/svg" xmlns:xlink="http://www.w3.org/1999/xlink" width="199.316" height="141.418" viewBox="0 0 199.316 141.418">
  <defs>
    <clipPath id="clip-path">
      <rect id="Rectangle_31564" data-name="Rectangle 31564" width="199.316" height="141.418" fill="none"/>
    </clipPath>
  </defs>
  <g id="Group_77291" data-name="Group 77291" transform="translate(0 -0.001)">
    <g id="Group_77290" data-name="Group 77290" transform="translate(0 0.001)" clip-path="url(#clip-path)">
      <path id="Path_62240" data-name="Path 62240" d="M162.869,397.462l-127.216,11.5A10.179,10.179,0,0,1,24.6,399.741l-6.393-70.723a10.179,10.179,0,0,1,9.221-11.054l127.216-11.5a10.179,10.179,0,0,1,11.054,9.221l6.393,70.723a10.178,10.178,0,0,1-9.221,11.054" transform="translate(-15.863 -267.586)" fill="#e6e6e6"/>
      <path id="Path_62241" data-name="Path 62241" d="M292.127,270.9H164.393a10.179,10.179,0,0,1-10.179-10.179V189.71a10.179,10.179,0,0,1,10.179-10.179H292.127a10.179,10.179,0,0,1,10.179,10.179v71.011A10.179,10.179,0,0,1,292.127,270.9" transform="translate(-134.556 -156.777)" fill="#fff"/>
      <path id="Path_62242" data-name="Path 62242" d="M252.072,259.007H150.48a12.212,12.212,0,0,1-12.2-12.2V175.8a12.212,12.212,0,0,1,12.2-12.2H278.214a12.212,12.212,0,0,1,12.2,12.2v28.273a2.019,2.019,0,0,1-4.039,0V175.8a8.169,8.169,0,0,0-8.16-8.159H150.48a8.169,8.169,0,0,0-8.159,8.159v71.011a8.169,8.169,0,0,0,8.159,8.159H252.072a2.019,2.019,0,1,1,0,4.038" transform="translate(-120.756 -142.865)" fill="#054060"/>
      <path id="Path_62248" data-name="Path 62248" d="M1136.072,571.7a31.678,31.678,0,1,1-31.678-31.678,31.678,31.678,0,0,1,31.678,31.678" transform="translate(-936.756 -471.577)" fill="#2be05e"/>
      <path id="Path_62251" data-name="Path 62251" d="M661.2,37.953h0a11.211,11.211,0,0,1-11.211-11.211V3.772A3.771,3.771,0,0,1,653.756,0h14.879a3.771,3.771,0,0,1,3.771,3.771V26.743A11.211,11.211,0,0,1,661.2,37.953" transform="translate(-567.604 -0.001)" fill="#ccc"/>
      <path id="Path_62252" data-name="Path 62252" d="M718.331,55.985a3.413,3.413,0,1,1-3.413-3.413,3.413,3.413,0,0,1,3.413,3.413" transform="translate(-621.326 -45.909)" fill="#fff"/>
      <path id="Path_62253" data-name="Path 62253" d="M2.019,186.218a2.019,2.019,0,0,1,0-4.039H9.933a2.019,2.019,0,1,1,0,4.039Z" transform="translate(0 -159.089)" fill="#054060"/>
      <path id="Path_62254" data-name="Path 62254" d="M163.129,36.265a2.019,2.019,0,0,1-2.019-2.019V26.331a2.019,2.019,0,1,1,4.039,0v7.914a2.019,2.019,0,0,1-2.019,2.019" transform="translate(-140.69 -21.231)" fill="#054060"/>
      <path id="Path_62255" data-name="Path 62255" d="M11.8,38.136a2.013,2.013,0,0,1-1.428-.592L.591,27.76A2.019,2.019,0,0,1,3.447,24.9l9.785,9.785A2.019,2.019,0,0,1,11.8,38.136" transform="translate(0 -21.231)" fill="#054060"/>
      <g id="Group_79007" data-name="Group 79007" transform="translate(12)">
        <g id="Group_79004" data-name="Group 79004" transform="translate(27.774 41.935)">
          <g id="Rectangle_32008" data-name="Rectangle 32008" transform="translate(-0.116 0.001)" fill="#fff" stroke="#054060" stroke-width="1">
            <rect width="51" height="28" rx="4" stroke="none"/>
            <rect x="0.5" y="0.5" width="50" height="27" rx="3.5" fill="none"/>
          </g>
          <g id="Group_79228" data-name="Group 79228" transform="translate(1.284 2.795)">
            <path id="Path_62246" data-name="Path 62246" d="M765.432,526.9H750.3c-.478,0-.865-.638-.865-1.424s.387-1.424.865-1.424h15.132c.478,0,.865.638.865,1.424s-.387,1.424-.865,1.424" transform="translate(-732.623 -510.842)" fill="#ccc"/>
            <path id="Path_62245" data-name="Path 62245" d="M776.752,429.01H750.627a1.447,1.447,0,0,1,0-2.849h26.125a1.447,1.447,0,0,1,0,2.849" transform="translate(-732.623 -418.886)" fill="#2daef5"/>
          </g>
          <g id="Group_79227" data-name="Group 79227" transform="translate(-0.3 2.336)">
            <path id="Path_62359" data-name="Path 62359" d="M383.925,321.6a2.626,2.626,0,1,1,2.626,2.626,2.626,2.626,0,0,1-2.626-2.626" transform="translate(-376.78 -313.235)" fill="#2daef5"/>
            <path id="Path_62360" data-name="Path 62360" d="M293.007,557.62h-7.523a1.543,1.543,0,0,1-1.431-2.124,5.611,5.611,0,0,1,10.385,0,1.543,1.543,0,0,1-1.431,2.124" transform="translate(-279.473 -540.024)" fill="#2daef5"/>
          </g>
        </g>
        <g id="Group_79229" data-name="Group 79229" transform="translate(84.774 41.935)">
          <g id="Rectangle_32008-2" data-name="Rectangle 32008" transform="translate(-0.116 0.001)" fill="#fff" stroke="#054060" stroke-width="1">
            <rect width="51" height="28" rx="4" stroke="none"/>
            <rect x="0.5" y="0.5" width="50" height="27" rx="3.5" fill="none"/>
          </g>
          <g id="Group_79228-2" data-name="Group 79228" transform="translate(1.284 2.795)">
            <path id="Path_62246-2" data-name="Path 62246" d="M765.432,526.9H750.3c-.478,0-.865-.638-.865-1.424s.387-1.424.865-1.424h15.132c.478,0,.865.638.865,1.424s-.387,1.424-.865,1.424" transform="translate(-732.623 -510.842)" fill="#ccc"/>
            <path id="Path_62245-2" data-name="Path 62245" d="M776.752,429.01H750.627a1.447,1.447,0,0,1,0-2.849h26.125a1.447,1.447,0,0,1,0,2.849" transform="translate(-732.623 -418.886)" fill="#2daef5"/>
          </g>
          <g id="Group_79227-2" data-name="Group 79227" transform="translate(-0.3 2.336)">
            <path id="Path_62359-2" data-name="Path 62359" d="M383.925,321.6a2.626,2.626,0,1,1,2.626,2.626,2.626,2.626,0,0,1-2.626-2.626" transform="translate(-376.78 -313.235)" fill="#2daef5"/>
            <path id="Path_62360-2" data-name="Path 62360" d="M293.007,557.62h-7.523a1.543,1.543,0,0,1-1.431-2.124,5.611,5.611,0,0,1,10.385,0,1.543,1.543,0,0,1-1.431,2.124" transform="translate(-279.473 -540.024)" fill="#2daef5"/>
          </g>
        </g>
        <g id="Group_79230" data-name="Group 79230" transform="translate(27.774 75.935)">
          <g id="Rectangle_32008-3" data-name="Rectangle 32008" transform="translate(-0.116 0.001)" fill="#fff" stroke="#054060" stroke-width="1">
            <rect width="51" height="28" rx="4" stroke="none"/>
            <rect x="0.5" y="0.5" width="50" height="27" rx="3.5" fill="none"/>
          </g>
          <g id="Group_79228-3" data-name="Group 79228" transform="translate(1.284 2.795)">
            <path id="Path_62246-3" data-name="Path 62246" d="M765.432,526.9H750.3c-.478,0-.865-.638-.865-1.424s.387-1.424.865-1.424h15.132c.478,0,.865.638.865,1.424s-.387,1.424-.865,1.424" transform="translate(-732.623 -510.842)" fill="#ccc"/>
            <path id="Path_62245-3" data-name="Path 62245" d="M776.752,429.01H750.627a1.447,1.447,0,0,1,0-2.849h26.125a1.447,1.447,0,0,1,0,2.849" transform="translate(-732.623 -418.886)" fill="#2daef5"/>
          </g>
          <g id="Group_79227-3" data-name="Group 79227" transform="translate(-0.3 2.336)">
            <path id="Path_62359-3" data-name="Path 62359" d="M383.925,321.6a2.626,2.626,0,1,1,2.626,2.626,2.626,2.626,0,0,1-2.626-2.626" transform="translate(-376.78 -313.235)" fill="#2daef5"/>
            <path id="Path_62360-3" data-name="Path 62360" d="M293.007,557.62h-7.523a1.543,1.543,0,0,1-1.431-2.124,5.611,5.611,0,0,1,10.385,0,1.543,1.543,0,0,1-1.431,2.124" transform="translate(-279.473 -540.024)" fill="#2daef5"/>
          </g>
        </g>
      </g>
      <g id="Layer_25" data-name="Layer 25" transform="translate(151.531 85.229)">
        <path id="Path_51611" data-name="Path 51611" d="M32.437,14.432V24.72a4.158,4.158,0,0,1-4.287,4H5.287A4.158,4.158,0,0,1,1,24.72V14.432a1.429,1.429,0,1,1,2.858,0V24.72a1.329,1.329,0,0,0,1.429,1.143H28.15a1.329,1.329,0,0,0,1.429-1.143V14.432a1.429,1.429,0,1,1,2.858,0ZM15.7,21.162a1.429,1.429,0,0,0,.915.414h.272a1.429,1.429,0,0,0,.772-.343l.071-.071,4.458-4.444a1.435,1.435,0,0,0-2.029-2.029L18.148,16.7V4.429a1.429,1.429,0,0,0-2.858,0V16.7l-2.015-2.029A1.435,1.435,0,0,0,11.246,16.7Z" transform="translate(-0.5 -2.5)" fill="#fff"/>
        <path id="Path_51611_-_Outline" data-name="Path 51611 - Outline" d="M16.969,2.75A1.931,1.931,0,0,1,18.9,4.679V15.747l1.161-1.161A1.935,1.935,0,1,1,22.8,17.322L18.241,21.86a1.921,1.921,0,0,1-1.042.463l-.059,0h-.3a1.929,1.929,0,0,1-1.235-.559l-4.459-4.459a1.935,1.935,0,1,1,2.738-2.735l1.16,1.168V4.679A1.931,1.931,0,0,1,16.969,2.75ZM17.9,18.161V4.679a.929.929,0,0,0-1.858,0V18.167l-2.87-2.89a.929.929,0,0,0-1.319,0,.923.923,0,0,0-.269.66.939.939,0,0,0,.269.665l4.457,4.457a.928.928,0,0,0,.579.268h.22a.925.925,0,0,0,.464-.21l.058-.058,4.459-4.445a.935.935,0,0,0-1.323-1.321ZM2.679,12.753a1.931,1.931,0,0,1,1.929,1.929v10.25a.832.832,0,0,0,.887.683l.042,0,22.906,0a.832.832,0,0,0,.887-.683V14.682a1.929,1.929,0,0,1,3.858,0V24.989a4.643,4.643,0,0,1-4.795,4.482H5.544A4.641,4.641,0,0,1,.75,24.989V14.682A1.931,1.931,0,0,1,2.679,12.753ZM5.423,26.618a1.835,1.835,0,0,1-1.811-1.58l0-.068V14.682a.929.929,0,0,0-1.858,0V24.961a3.646,3.646,0,0,0,3.771,3.511h22.9a3.645,3.645,0,0,0,3.771-3.511V14.682a.929.929,0,0,0-1.858,0l0,10.357a1.835,1.835,0,0,1-1.944,1.575H5.556Q5.489,26.618,5.423,26.618Z" transform="translate(-0.75 -2.75)" fill="#fff"/>
      </g>
    </g>
  </g>
</svg>
