<svg xmlns="http://www.w3.org/2000/svg" xmlns:xlink="http://www.w3.org/1999/xlink" width="199.316" height="141.418" viewBox="0 0 199.316 141.418">
  <defs>
    <clipPath id="clip-path">
      <rect id="Rectangle_31564" data-name="Rectangle 31564" width="199.316" height="141.418" fill="none"/>
    </clipPath>
    <clipPath id="clip-path-2">
      <rect id="Rectangle_32009" data-name="Rectangle 32009" width="8.21" height="35.101" fill="none"/>
    </clipPath>
  </defs>
  <g id="Group_77291" data-name="Group 77291" transform="translate(0 -0.001)">
    <g id="Group_77290" data-name="Group 77290" transform="translate(0 0.001)" clip-path="url(#clip-path)">
      <path id="Path_62240" data-name="Path 62240" d="M162.869,397.462l-127.216,11.5A10.179,10.179,0,0,1,24.6,399.741l-6.393-70.723a10.179,10.179,0,0,1,9.221-11.054l127.216-11.5a10.179,10.179,0,0,1,11.054,9.221l6.393,70.723a10.178,10.178,0,0,1-9.221,11.054" transform="translate(-15.863 -267.586)" fill="#e6e6e6"/>
      <path id="Path_62241" data-name="Path 62241" d="M292.127,270.9H164.393a10.179,10.179,0,0,1-10.179-10.179V189.71a10.179,10.179,0,0,1,10.179-10.179H292.127a10.179,10.179,0,0,1,10.179,10.179v71.011A10.179,10.179,0,0,1,292.127,270.9" transform="translate(-134.556 -156.777)" fill="#fff"/>
      <path id="Path_62242" data-name="Path 62242" d="M252.072,259.007H150.48a12.212,12.212,0,0,1-12.2-12.2V175.8a12.212,12.212,0,0,1,12.2-12.2H278.214a12.212,12.212,0,0,1,12.2,12.2v28.273a2.019,2.019,0,0,1-4.039,0V175.8a8.169,8.169,0,0,0-8.16-8.159H150.48a8.169,8.169,0,0,0-8.159,8.159v71.011a8.169,8.169,0,0,0,8.159,8.159H252.072a2.019,2.019,0,1,1,0,4.038" transform="translate(-120.756 -142.865)" fill="#054060"/>
      <path id="Path_62248" data-name="Path 62248" d="M1136.072,571.7a31.678,31.678,0,1,1-31.678-31.678,31.678,31.678,0,0,1,31.678,31.678" transform="translate(-936.756 -471.577)" fill="#eb2344"/>
      <path id="Path_62251" data-name="Path 62251" d="M661.2,37.953h0a11.211,11.211,0,0,1-11.211-11.211V3.772A3.771,3.771,0,0,1,653.756,0h14.879a3.771,3.771,0,0,1,3.771,3.771V26.743A11.211,11.211,0,0,1,661.2,37.953" transform="translate(-567.604 -0.001)" fill="#ccc"/>
      <path id="Path_62252" data-name="Path 62252" d="M718.331,55.985a3.413,3.413,0,1,1-3.413-3.413,3.413,3.413,0,0,1,3.413,3.413" transform="translate(-621.326 -45.909)" fill="#fff"/>
      <path id="Path_62253" data-name="Path 62253" d="M2.019,186.218a2.019,2.019,0,0,1,0-4.039H9.933a2.019,2.019,0,1,1,0,4.039Z" transform="translate(0 -159.089)" fill="#054060"/>
      <path id="Path_62254" data-name="Path 62254" d="M163.129,36.265a2.019,2.019,0,0,1-2.019-2.019V26.331a2.019,2.019,0,1,1,4.039,0v7.914a2.019,2.019,0,0,1-2.019,2.019" transform="translate(-140.69 -21.231)" fill="#054060"/>
      <path id="Path_62255" data-name="Path 62255" d="M11.8,38.136a2.013,2.013,0,0,1-1.428-.592L.591,27.76A2.019,2.019,0,0,1,3.447,24.9l9.785,9.785A2.019,2.019,0,0,1,11.8,38.136" transform="translate(0 -21.231)" fill="#054060"/>
      <g id="Group_79007" data-name="Group 79007" transform="translate(12)">
        <g id="Group_79004" data-name="Group 79004" transform="translate(27.774 41.935)">
          <g id="Rectangle_32008" data-name="Rectangle 32008" transform="translate(-0.116 0.001)" fill="#fff" stroke="#054060" stroke-width="1">
            <rect width="51" height="28" rx="4" stroke="none"/>
            <rect x="0.5" y="0.5" width="50" height="27" rx="3.5" fill="none"/>
          </g>
          <path id="Path_62247" data-name="Path 62247" d="M769.923,624.784H750.859a1.424,1.424,0,1,1,0-2.849h19.063a1.424,1.424,0,1,1,0,2.849" transform="translate(-744.971 -604.339)" fill="#ccc"/>
          <path id="Path_62246" data-name="Path 62246" d="M775.783,526.9H750.859a1.424,1.424,0,0,1,0-2.849h24.924a1.424,1.424,0,1,1,0,2.849" transform="translate(-744.971 -512.383)" fill="#ccc"/>
          <path id="Path_62245" data-name="Path 62245" d="M782.084,429.01H750.859a1.425,1.425,0,0,1,0-2.849h31.224a1.425,1.425,0,1,1,0,2.849" transform="translate(-744.971 -420.427)" fill="#2daef5"/>
        </g>
        <g id="Group_79005" data-name="Group 79005" transform="translate(27.774 76.277)">
          <g id="Rectangle_32008-2" data-name="Rectangle 32008" transform="translate(-0.116 -0.342)" fill="#fff" stroke="#054060" stroke-width="1">
            <rect width="51" height="28" rx="6" stroke="none"/>
            <rect x="0.5" y="0.5" width="50" height="27" rx="5.5" fill="none"/>
          </g>
          <path id="Path_62247-2" data-name="Path 62247" d="M769.923,624.784H750.859a1.424,1.424,0,1,1,0-2.849h19.063a1.424,1.424,0,1,1,0,2.849" transform="translate(-744.971 -604.339)" fill="#ccc"/>
          <path id="Path_62246-2" data-name="Path 62246" d="M775.783,526.9H750.859a1.424,1.424,0,0,1,0-2.849h24.924a1.424,1.424,0,1,1,0,2.849" transform="translate(-744.971 -512.383)" fill="#ccc"/>
          <path id="Path_62245-2" data-name="Path 62245" d="M782.084,429.01H750.859a1.425,1.425,0,0,1,0-2.849h31.224a1.425,1.425,0,1,1,0,2.849" transform="translate(-744.971 -420.427)" fill="#2daef5"/>
        </g>
        <g id="Group_79006" data-name="Group 79006" transform="translate(84.609 41.935)">
          <g id="Rectangle_32008-3" data-name="Rectangle 32008" transform="translate(0.049 0.001)" fill="#fff" stroke="#054060" stroke-width="1">
            <rect width="51" height="28" rx="6" stroke="none"/>
            <rect x="0.5" y="0.5" width="50" height="27" rx="5.5" fill="none"/>
          </g>
          <path id="Path_62247-3" data-name="Path 62247" d="M769.923,624.784H750.859a1.424,1.424,0,1,1,0-2.849h19.063a1.424,1.424,0,1,1,0,2.849" transform="translate(-744.971 -604.339)" fill="#ccc"/>
          <path id="Path_62246-3" data-name="Path 62246" d="M775.783,526.9H750.859a1.424,1.424,0,0,1,0-2.849h24.924a1.424,1.424,0,1,1,0,2.849" transform="translate(-744.971 -512.383)" fill="#ccc"/>
          <path id="Path_62245-3" data-name="Path 62245" d="M782.084,429.01H750.859a1.425,1.425,0,0,1,0-2.849h31.224a1.425,1.425,0,1,1,0,2.849" transform="translate(-744.971 -420.427)" fill="#2daef5"/>
        </g>
      </g>
      <g id="Group_79003" data-name="Group 79003" transform="translate(163.533 81.041)">
        <g id="Group_79002" data-name="Group 79002" transform="translate(0 0)" clip-path="url(#clip-path-2)">
          <path id="Path_62357" data-name="Path 62357" d="M4.14,24h0a4.087,4.087,0,0,0,4.087-4.087V4.087a4.087,4.087,0,1,0-8.174,0V19.913A4.087,4.087,0,0,0,4.14,24" transform="translate(-0.017 0)" fill="#fff"/>
          <path id="Path_62358" data-name="Path 62358" d="M8.21,43.583A4.1,4.1,0,1,1,4.1,39.478,4.105,4.105,0,0,1,8.21,43.583" transform="translate(0 -12.588)" fill="#fff"/>
        </g>
      </g>
    </g>
  </g>
</svg>
