<svg xmlns="http://www.w3.org/2000/svg" xmlns:xlink="http://www.w3.org/1999/xlink" width="199.316" height="141.418" viewBox="0 0 199.316 141.418">
  <defs>
    <clipPath id="clip-path">
      <rect id="Rectangle_31564" data-name="Rectangle 31564" width="199.316" height="141.418" fill="none"/>
    </clipPath>
  </defs>
  <g id="Group_77291" data-name="Group 77291" transform="translate(0 -0.001)">
    <g id="Group_77290" data-name="Group 77290" transform="translate(0 0.001)" clip-path="url(#clip-path)">
      <path id="Path_62240" data-name="Path 62240" d="M162.869,397.462l-127.216,11.5A10.179,10.179,0,0,1,24.6,399.741l-6.393-70.723a10.179,10.179,0,0,1,9.221-11.054l127.216-11.5a10.179,10.179,0,0,1,11.054,9.221l6.393,70.723a10.178,10.178,0,0,1-9.221,11.054" transform="translate(-15.863 -267.586)" fill="#e6e6e6"/>
      <path id="Path_62241" data-name="Path 62241" d="M292.127,270.9H164.393a10.179,10.179,0,0,1-10.179-10.179V189.71a10.179,10.179,0,0,1,10.179-10.179H292.127a10.179,10.179,0,0,1,10.179,10.179v71.011A10.179,10.179,0,0,1,292.127,270.9" transform="translate(-134.668 -156.777)" fill="#fff"/>
      <path id="Path_62242" data-name="Path 62242" d="M252.072,259.007H150.48a12.212,12.212,0,0,1-12.2-12.2V175.8a12.212,12.212,0,0,1,12.2-12.2H278.214a12.212,12.212,0,0,1,12.2,12.2v28.273a2.019,2.019,0,0,1-4.039,0V175.8a8.169,8.169,0,0,0-8.16-8.159H150.48a8.169,8.169,0,0,0-8.159,8.159v71.011a8.169,8.169,0,0,0,8.159,8.159H252.072a2.019,2.019,0,1,1,0,4.038" transform="translate(-120.756 -142.865)" fill="#054060"/>
      <path id="Path_62243" data-name="Path 62243" d="M383.925,331.376a12.406,12.406,0,1,1,12.406,12.406,12.407,12.407,0,0,1-12.406-12.406" transform="translate(-335.265 -278.543)" fill="#2daef5"/>
      <path id="Path_62244" data-name="Path 62244" d="M326.787,578.508H291.246a7.29,7.29,0,0,1-6.761-10.033,26.507,26.507,0,0,1,49.064,0,7.29,7.29,0,0,1-6.761,10.033" transform="translate(-247.95 -482.048)" fill="#2daef5"/>
      <path id="Path_62245" data-name="Path 62245" d="M795.715,430.2H751.454a2.019,2.019,0,0,1,0-4.039h44.261a2.019,2.019,0,1,1,0,4.039" transform="translate(-654.449 -372.148)" fill="#2daef5"/>
      <path id="Path_62246" data-name="Path 62246" d="M786.784,528.086H751.454a2.019,2.019,0,0,1,0-4.039h35.329a2.019,2.019,0,1,1,0,4.039" transform="translate(-654.449 -457.629)" fill="#ccc"/>
      <path id="Path_62247" data-name="Path 62247" d="M778.477,625.973H751.454a2.019,2.019,0,1,1,0-4.038h27.022a2.019,2.019,0,1,1,0,4.038" transform="translate(-654.449 -543.109)" fill="#ccc"/>
      <path id="Path_62248" data-name="Path 62248" d="M1136.072,571.7a31.678,31.678,0,1,1-31.678-31.678,31.678,31.678,0,0,1,31.678,31.678" transform="translate(-936.756 -471.577)" fill="#2be05e"/>
      <path id="Path_62249" data-name="Path 62249" d="M1308.744,681.944a2.019,2.019,0,0,1-2.019-2.019v-32.64a2.019,2.019,0,1,1,4.038,0v32.64a2.019,2.019,0,0,1-2.019,2.019" transform="translate(-1141.107 -563.482)" fill="#fff"/>
      <path id="Path_62250" data-name="Path 62250" d="M1212.619,778.07h-32.64a2.019,2.019,0,1,1,0-4.038h32.64a2.019,2.019,0,1,1,0,4.038" transform="translate(-1028.661 -675.929)" fill="#fff"/>
      <path id="Path_62251" data-name="Path 62251" d="M661.2,37.953h0a11.211,11.211,0,0,1-11.211-11.211V3.772A3.771,3.771,0,0,1,653.756,0h14.879a3.771,3.771,0,0,1,3.771,3.771V26.743A11.211,11.211,0,0,1,661.2,37.953" transform="translate(-567.604 -0.001)" fill="#ccc"/>
      <path id="Path_62252" data-name="Path 62252" d="M718.331,55.985a3.413,3.413,0,1,1-3.413-3.413,3.413,3.413,0,0,1,3.413,3.413" transform="translate(-621.326 -45.909)" fill="#fff"/>
      <path id="Path_62253" data-name="Path 62253" d="M2.019,186.218a2.019,2.019,0,0,1,0-4.039H9.933a2.019,2.019,0,1,1,0,4.039Z" transform="translate(0 -159.089)" fill="#054060"/>
      <path id="Path_62254" data-name="Path 62254" d="M163.129,36.265a2.019,2.019,0,0,1-2.019-2.019V26.331a2.019,2.019,0,1,1,4.039,0v7.914a2.019,2.019,0,0,1-2.019,2.019" transform="translate(-140.69 -21.231)" fill="#054060"/>
      <path id="Path_62255" data-name="Path 62255" d="M11.8,38.136a2.013,2.013,0,0,1-1.428-.592L.591,27.76A2.019,2.019,0,0,1,3.447,24.9l9.785,9.785A2.019,2.019,0,0,1,11.8,38.136" transform="translate(0 -21.231)" fill="#054060"/>
    </g>
  </g>
</svg>
