<svg xmlns="http://www.w3.org/2000/svg" xmlns:xlink="http://www.w3.org/1999/xlink" width="120.805" height="153.123" viewBox="0 0 120.805 153.123">
  <defs>
    <clipPath id="clip-path">
      <rect id="Rectangle_31580" data-name="Rectangle 31580" width="97.754" height="109.285" fill="#054060"/>
    </clipPath>
  </defs>
  <g id="Group_77347" data-name="Group 77347" transform="translate(-1160.758 -392.508)">
    <path id="Path_62271" data-name="Path 62271" d="M2.019,186.218a2.019,2.019,0,0,1,0-4.039H9.933a2.019,2.019,0,1,1,0,4.039Z" transform="translate(1167 230.338)" fill="#054060"/>
    <g id="Group_77346" data-name="Group 77346">
      <rect id="Rectangle_31581" data-name="Rectangle 31581" width="86" height="110" rx="10" transform="translate(1160.758 437.302) rotate(-10)" fill="#e6e6e6"/>
      <rect id="Rectangle_31582" data-name="Rectangle 31582" width="83" height="104" rx="4" transform="translate(1186 413)" fill="#fff"/>
      <g id="Group_77345" data-name="Group 77345" transform="translate(1183.809 410.351)">
        <g id="Group_77344" data-name="Group 77344" clip-path="url(#clip-path)">
          <path id="Path_62269" data-name="Path 62269" d="M60.394,103.533H14.38a8.638,8.638,0,0,1-8.628-8.628V14.38A8.638,8.638,0,0,1,14.38,5.752H46.015V25.883a14.4,14.4,0,0,0,14.38,14.38H83.4a2.868,2.868,0,0,0,2.629-1.778l.011-.026a2.88,2.88,0,0,0-.6-3.135L51.109.994a1.447,1.447,0,0,0-.533-.337l-1.6-.573A1.435,1.435,0,0,0,48.488,0H14.38A14.4,14.4,0,0,0,0,14.38V94.905a14.4,14.4,0,0,0,14.38,14.38H60.394a2.876,2.876,0,1,0,0-5.752m0-69.022a8.638,8.638,0,0,1-8.628-8.628V9.795L76.483,34.511Z" transform="translate(0 0)" fill="#054060"/>
          <path id="Path_62270" data-name="Path 62270" d="M371.531,418.92l-.011-.027a3.72,3.72,0,0,0-.589-.955c-.026-.032-.055-.062-.082-.089l-17.164-17.164a2.9,2.9,0,1,0-4.1,4.1l12.425,12.33H322.876a2.876,2.876,0,0,0,0,5.752H362.01L349.576,435.2a2.879,2.879,0,0,0-.014,4.07l.031.031a2.864,2.864,0,0,0,2.043.85,2.831,2.831,0,0,0,2.026-.835l17.28-17.281a2.439,2.439,0,0,0,.539-.85l.041-.106a2.861,2.861,0,0,0,.009-2.164" transform="translate(-273.985 -342.341)" fill="#2daef5"/>
        </g>
      </g>
      <path id="Line_445" data-name="Line 445" d="M-.1,15A2.953,2.953,0,0,1-3,12V0A2.953,2.953,0,0,1-.1-3a2.953,2.953,0,0,1,2.9,3V12A2.953,2.953,0,0,1-.1,15Z" transform="translate(1267.553 448)" fill="#054060"/>
      <path id="Path_62272" data-name="Path 62272" d="M163.129,36.265a2.019,2.019,0,0,1-2.019-2.019V26.331a2.019,2.019,0,1,1,4.039,0v7.914a2.019,2.019,0,0,1-2.019,2.019" transform="translate(1026.309 368.196)" fill="#054060"/>
    </g>
    <path id="Path_62273" data-name="Path 62273" d="M11.8,38.136a2.013,2.013,0,0,1-1.428-.592L.591,27.76A2.019,2.019,0,0,1,3.447,24.9l9.785,9.785A2.019,2.019,0,0,1,11.8,38.136" transform="translate(1167 368.196)" fill="#054060"/>
  </g>
</svg>
