<svg xmlns="http://www.w3.org/2000/svg" xmlns:xlink="http://www.w3.org/1999/xlink" width="199.316" height="141.418" viewBox="0 0 199.316 141.418">
  <defs>
    <clipPath id="clip-path">
      <rect id="Rectangle_31564" data-name="Rectangle 31564" width="199.316" height="141.418" fill="none"/>
    </clipPath>
    <clipPath id="clip-path-2">
      <rect id="Rectangle_31570" data-name="Rectangle 31570" width="21.428" height="14.216" transform="translate(0 0)" fill="#2daef5"/>
    </clipPath>
  </defs>
  <g id="Group_77291" data-name="Group 77291" transform="translate(0 -0.001)">
    <g id="Group_77290" data-name="Group 77290" transform="translate(0 0.001)" clip-path="url(#clip-path)">
      <path id="Path_62240" data-name="Path 62240" d="M162.869,397.462l-127.216,11.5A10.179,10.179,0,0,1,24.6,399.741l-6.393-70.723a10.179,10.179,0,0,1,9.221-11.054l127.216-11.5a10.179,10.179,0,0,1,11.054,9.221l6.393,70.723a10.178,10.178,0,0,1-9.221,11.054" transform="translate(-15.863 -267.586)" fill="#e6e6e6"/>
      <path id="Path_62241" data-name="Path 62241" d="M292.127,270.9H164.393a10.179,10.179,0,0,1-10.179-10.179V189.71a10.179,10.179,0,0,1,10.179-10.179H292.127a10.179,10.179,0,0,1,10.179,10.179v71.011A10.179,10.179,0,0,1,292.127,270.9" transform="translate(-134.668 -156.777)" fill="#fff"/>
      <path id="Path_62242" data-name="Path 62242" d="M252.072,259.007H150.48a12.212,12.212,0,0,1-12.2-12.2V175.8a12.212,12.212,0,0,1,12.2-12.2H278.214a12.212,12.212,0,0,1,12.2,12.2v28.273a2.019,2.019,0,0,1-4.039,0V175.8a8.169,8.169,0,0,0-8.16-8.159H150.48a8.169,8.169,0,0,0-8.159,8.159v71.011a8.169,8.169,0,0,0,8.159,8.159H252.072a2.019,2.019,0,1,1,0,4.038" transform="translate(-120.756 -142.865)" fill="#054060"/>
      <path id="Path_62248" data-name="Path 62248" d="M1136.072,571.7a31.678,31.678,0,1,1-31.678-31.678,31.678,31.678,0,0,1,31.678,31.678" transform="translate(-936.756 -471.577)" fill="#2be05e"/>
      <path id="Path_62249" data-name="Path 62249" d="M1308.744,681.944a2.019,2.019,0,0,1-2.019-2.019v-32.64a2.019,2.019,0,1,1,4.038,0v32.64a2.019,2.019,0,0,1-2.019,2.019" transform="translate(-1141.107 -563.482)" fill="#fff"/>
      <path id="Path_62250" data-name="Path 62250" d="M1212.619,778.07h-32.64a2.019,2.019,0,1,1,0-4.038h32.64a2.019,2.019,0,1,1,0,4.038" transform="translate(-1028.661 -675.929)" fill="#fff"/>
      <path id="Path_62251" data-name="Path 62251" d="M661.2,37.953h0a11.211,11.211,0,0,1-11.211-11.211V3.772A3.771,3.771,0,0,1,653.756,0h14.879a3.771,3.771,0,0,1,3.771,3.771V26.743A11.211,11.211,0,0,1,661.2,37.953" transform="translate(-567.604 -0.001)" fill="#ccc"/>
      <path id="Path_62252" data-name="Path 62252" d="M718.331,55.985a3.413,3.413,0,1,1-3.413-3.413,3.413,3.413,0,0,1,3.413,3.413" transform="translate(-621.326 -45.909)" fill="#fff"/>
      <path id="Path_62253" data-name="Path 62253" d="M2.019,186.218a2.019,2.019,0,0,1,0-4.039H9.933a2.019,2.019,0,1,1,0,4.039Z" transform="translate(0 -159.089)" fill="#054060"/>
      <path id="Path_62254" data-name="Path 62254" d="M163.129,36.265a2.019,2.019,0,0,1-2.019-2.019V26.331a2.019,2.019,0,1,1,4.039,0v7.914a2.019,2.019,0,0,1-2.019,2.019" transform="translate(-140.69 -21.231)" fill="#054060"/>
      <path id="Path_62255" data-name="Path 62255" d="M11.8,38.136a2.013,2.013,0,0,1-1.428-.592L.591,27.76A2.019,2.019,0,0,1,3.447,24.9l9.785,9.785A2.019,2.019,0,0,1,11.8,38.136" transform="translate(0 -21.231)" fill="#054060"/>
      <g id="Group_77305" data-name="Group 77305" transform="translate(37.822 40.822)">
        <g id="Rectangle_31569" data-name="Rectangle 31569" transform="translate(0.177 -0.248)" fill="#fff" stroke="#054060" stroke-width="1">
          <rect width="50" height="25" rx="6" stroke="none"/>
          <rect x="0.5" y="0.5" width="49" height="24" rx="5.5" fill="none"/>
        </g>
        <g id="Group_77304" data-name="Group 77304" transform="translate(11.181 4.362)">
          <path id="Path_62245" data-name="Path 62245" d="M761.823,427.242H749.976a.54.54,0,0,1,0-1.081h11.847a.54.54,0,0,1,0,1.081" transform="translate(-729.643 -422.525)" fill="#2daef5"/>
          <path id="Path_62246" data-name="Path 62246" d="M759.432,525.129h-9.456a.54.54,0,0,1,0-1.081h9.456a.54.54,0,0,1,0,1.081" transform="translate(-729.643 -517.091)" fill="#ccc"/>
          <path id="Path_62247" data-name="Path 62247" d="M757.208,623.016h-7.233a.54.54,0,0,1,0-1.081h7.233a.54.54,0,1,1,0,1.081" transform="translate(-729.643 -611.657)" fill="#ccc"/>
          <g id="Group_77308" data-name="Group 77308" transform="translate(-4.001 0.393)">
            <g id="Group_77307" data-name="Group 77307" transform="translate(0 -0.003)" clip-path="url(#clip-path-2)">
              <path id="Path_62262" data-name="Path 62262" d="M464.229,668.649c-.389-3.472-2.574-6.131-5.21-6.131s-4.821,2.659-5.21,6.131Z" transform="translate(-448.271 -654.433)" fill="#2daef5"/>
              <path id="Path_62263" data-name="Path 62263" d="M598.762,3.58A3.583,3.583,0,1,1,595.178,0a3.583,3.583,0,0,1,3.583,3.583" transform="translate(-584.376 0.003)" fill="#2daef5"/>
              <path id="Path_62264" data-name="Path 62264" d="M1214.723,261.873a2.388,2.388,0,1,1-2.387-2.388,2.387,2.387,0,0,1,2.387,2.388" transform="translate(-1195.183 -256.318)" fill="#2daef5"/>
              <path id="Path_62265" data-name="Path 62265" d="M168.238,261.873a2.388,2.388,0,1,1-2.388-2.388,2.388,2.388,0,0,1,2.388,2.388" transform="translate(-161.468 -256.318)" fill="#2daef5"/>
              <path id="Path_62266" data-name="Path 62266" d="M4.892,704.538A7.966,7.966,0,0,1,6.77,700.62a3.814,3.814,0,0,0-2.139-.678c-2.159,0-3.987,1.927-4.631,4.6Z" transform="translate(0 -691.401)" fill="#2daef5"/>
              <path id="Path_62267" data-name="Path 62267" d="M1207.929,704.538c-.643-2.669-2.472-4.6-4.63-4.6a3.813,3.813,0,0,0-2.139.678,7.966,7.966,0,0,1,1.877,3.918Z" transform="translate(-1186.501 -691.401)" fill="#2daef5"/>
            </g>
          </g>
        </g>
      </g>
      <g id="Group_77310" data-name="Group 77310" transform="translate(102.822 40.822)">
        <g id="Rectangle_31569-2" data-name="Rectangle 31569" transform="translate(0.177 -0.248)" fill="#fff" stroke="#054060" stroke-width="1">
          <rect width="50" height="25" rx="6" stroke="none"/>
          <rect x="0.5" y="0.5" width="49" height="24" rx="5.5" fill="none"/>
        </g>
        <g id="Group_77304-2" data-name="Group 77304" transform="translate(11.181 4.362)">
          <path id="Path_62245-2" data-name="Path 62245" d="M761.823,427.242H749.976a.54.54,0,0,1,0-1.081h11.847a.54.54,0,0,1,0,1.081" transform="translate(-729.643 -422.525)" fill="#2daef5"/>
          <path id="Path_62246-2" data-name="Path 62246" d="M759.432,525.129h-9.456a.54.54,0,0,1,0-1.081h9.456a.54.54,0,0,1,0,1.081" transform="translate(-729.643 -517.091)" fill="#ccc"/>
          <path id="Path_62247-2" data-name="Path 62247" d="M757.208,623.016h-7.233a.54.54,0,0,1,0-1.081h7.233a.54.54,0,1,1,0,1.081" transform="translate(-729.643 -611.657)" fill="#ccc"/>
          <g id="Group_77308-2" data-name="Group 77308" transform="translate(-4.001 0.393)">
            <g id="Group_77307-2" data-name="Group 77307" transform="translate(0 -0.003)" clip-path="url(#clip-path-2)">
              <path id="Path_62262-2" data-name="Path 62262" d="M464.229,668.649c-.389-3.472-2.574-6.131-5.21-6.131s-4.821,2.659-5.21,6.131Z" transform="translate(-448.271 -654.433)" fill="#2daef5"/>
              <path id="Path_62263-2" data-name="Path 62263" d="M598.762,3.58A3.583,3.583,0,1,1,595.178,0a3.583,3.583,0,0,1,3.583,3.583" transform="translate(-584.376 0.003)" fill="#2daef5"/>
              <path id="Path_62264-2" data-name="Path 62264" d="M1214.723,261.873a2.388,2.388,0,1,1-2.387-2.388,2.387,2.387,0,0,1,2.387,2.388" transform="translate(-1195.183 -256.318)" fill="#2daef5"/>
              <path id="Path_62265-2" data-name="Path 62265" d="M168.238,261.873a2.388,2.388,0,1,1-2.388-2.388,2.388,2.388,0,0,1,2.388,2.388" transform="translate(-161.468 -256.318)" fill="#2daef5"/>
              <path id="Path_62266-2" data-name="Path 62266" d="M4.892,704.538A7.966,7.966,0,0,1,6.77,700.62a3.814,3.814,0,0,0-2.139-.678c-2.159,0-3.987,1.927-4.631,4.6Z" transform="translate(0 -691.401)" fill="#2daef5"/>
              <path id="Path_62267-2" data-name="Path 62267" d="M1207.929,704.538c-.643-2.669-2.472-4.6-4.63-4.6a3.813,3.813,0,0,0-2.139.678,7.966,7.966,0,0,1,1.877,3.918Z" transform="translate(-1186.501 -691.401)" fill="#2daef5"/>
            </g>
          </g>
        </g>
      </g>
      <g id="Group_77309" data-name="Group 77309" transform="translate(37.822 74.822)">
        <g id="Rectangle_31569-3" data-name="Rectangle 31569" transform="translate(0.177 -0.248)" fill="#fff" stroke="#054060" stroke-width="1">
          <rect width="50" height="25" rx="6" stroke="none"/>
          <rect x="0.5" y="0.5" width="49" height="24" rx="5.5" fill="none"/>
        </g>
        <g id="Group_77304-3" data-name="Group 77304" transform="translate(11.181 4.362)">
          <path id="Path_62245-3" data-name="Path 62245" d="M761.823,427.242H749.976a.54.54,0,0,1,0-1.081h11.847a.54.54,0,0,1,0,1.081" transform="translate(-729.643 -422.525)" fill="#2daef5"/>
          <path id="Path_62246-3" data-name="Path 62246" d="M759.432,525.129h-9.456a.54.54,0,0,1,0-1.081h9.456a.54.54,0,0,1,0,1.081" transform="translate(-729.643 -517.091)" fill="#ccc"/>
          <path id="Path_62247-3" data-name="Path 62247" d="M757.208,623.016h-7.233a.54.54,0,0,1,0-1.081h7.233a.54.54,0,1,1,0,1.081" transform="translate(-729.643 -611.657)" fill="#ccc"/>
          <g id="Group_77308-3" data-name="Group 77308" transform="translate(-4.001 0.393)">
            <g id="Group_77307-3" data-name="Group 77307" transform="translate(0 -0.003)" clip-path="url(#clip-path-2)">
              <path id="Path_62262-3" data-name="Path 62262" d="M464.229,668.649c-.389-3.472-2.574-6.131-5.21-6.131s-4.821,2.659-5.21,6.131Z" transform="translate(-448.271 -654.433)" fill="#2daef5"/>
              <path id="Path_62263-3" data-name="Path 62263" d="M598.762,3.58A3.583,3.583,0,1,1,595.178,0a3.583,3.583,0,0,1,3.583,3.583" transform="translate(-584.376 0.003)" fill="#2daef5"/>
              <path id="Path_62264-3" data-name="Path 62264" d="M1214.723,261.873a2.388,2.388,0,1,1-2.387-2.388,2.387,2.387,0,0,1,2.387,2.388" transform="translate(-1195.183 -256.318)" fill="#2daef5"/>
              <path id="Path_62265-3" data-name="Path 62265" d="M168.238,261.873a2.388,2.388,0,1,1-2.388-2.388,2.388,2.388,0,0,1,2.388,2.388" transform="translate(-161.468 -256.318)" fill="#2daef5"/>
              <path id="Path_62266-3" data-name="Path 62266" d="M4.892,704.538A7.966,7.966,0,0,1,6.77,700.62a3.814,3.814,0,0,0-2.139-.678c-2.159,0-3.987,1.927-4.631,4.6Z" transform="translate(0 -691.401)" fill="#2daef5"/>
              <path id="Path_62267-3" data-name="Path 62267" d="M1207.929,704.538c-.643-2.669-2.472-4.6-4.63-4.6a3.813,3.813,0,0,0-2.139.678,7.966,7.966,0,0,1,1.877,3.918Z" transform="translate(-1186.501 -691.401)" fill="#2daef5"/>
            </g>
          </g>
        </g>
      </g>
    </g>
  </g>
</svg>
