<svg xmlns="http://www.w3.org/2000/svg" xmlns:xlink="http://www.w3.org/1999/xlink" width="199.316" height="141.418" viewBox="0 0 199.316 141.418">
  <defs>
    <clipPath id="clip-path">
      <rect id="Rectangle_31564" data-name="Rectangle 31564" width="199.316" height="141.418" fill="none"/>
    </clipPath>
  </defs>
  <g id="Group_77291" data-name="Group 77291" transform="translate(0 -0.001)">
    <g id="Group_77290" data-name="Group 77290" transform="translate(0 0.001)" clip-path="url(#clip-path)">
      <path id="Path_62240" data-name="Path 62240" d="M162.869,397.462l-127.216,11.5A10.179,10.179,0,0,1,24.6,399.741l-6.393-70.723a10.179,10.179,0,0,1,9.221-11.054l127.216-11.5a10.179,10.179,0,0,1,11.054,9.221l6.393,70.723a10.178,10.178,0,0,1-9.221,11.054" transform="translate(-15.863 -267.586)" fill="#e6e6e6"/>
      <path id="Path_62241" data-name="Path 62241" d="M292.127,270.9H164.393a10.179,10.179,0,0,1-10.179-10.179V189.71a10.179,10.179,0,0,1,10.179-10.179H292.127a10.179,10.179,0,0,1,10.179,10.179v71.011A10.179,10.179,0,0,1,292.127,270.9" transform="translate(-134.668 -156.777)" fill="#fff"/>
      <path id="Path_62242" data-name="Path 62242" d="M252.072,259.007H150.48a12.212,12.212,0,0,1-12.2-12.2V175.8a12.212,12.212,0,0,1,12.2-12.2H278.214a12.212,12.212,0,0,1,12.2,12.2v28.273a2.019,2.019,0,0,1-4.039,0V175.8a8.169,8.169,0,0,0-8.16-8.159H150.48a8.169,8.169,0,0,0-8.159,8.159v71.011a8.169,8.169,0,0,0,8.159,8.159H252.072a2.019,2.019,0,1,1,0,4.038" transform="translate(-120.756 -142.865)" fill="#054060"/>
      <path id="Path_62243" data-name="Path 62243" d="M383.925,331.376a12.406,12.406,0,1,1,12.406,12.406,12.407,12.407,0,0,1-12.406-12.406" transform="translate(-335.265 -278.543)" fill="#2daef5"/>
      <path id="Path_62244" data-name="Path 62244" d="M326.787,578.508H291.246a7.29,7.29,0,0,1-6.761-10.033,26.507,26.507,0,0,1,49.064,0,7.29,7.29,0,0,1-6.761,10.033" transform="translate(-247.95 -482.048)" fill="#2daef5"/>
      <path id="Path_62245" data-name="Path 62245" d="M795.715,430.2H751.454a2.019,2.019,0,0,1,0-4.039h44.261a2.019,2.019,0,1,1,0,4.039" transform="translate(-654.449 -372.148)" fill="#2daef5"/>
      <path id="Path_62246" data-name="Path 62246" d="M786.784,528.086H751.454a2.019,2.019,0,0,1,0-4.039h35.329a2.019,2.019,0,1,1,0,4.039" transform="translate(-654.449 -457.629)" fill="#ccc"/>
      <path id="Path_62247" data-name="Path 62247" d="M778.477,625.973H751.454a2.019,2.019,0,1,1,0-4.038h27.022a2.019,2.019,0,1,1,0,4.038" transform="translate(-654.449 -543.109)" fill="#ccc"/>
      <path id="Path_62251" data-name="Path 62251" d="M661.2,37.953h0a11.211,11.211,0,0,1-11.211-11.211V3.772A3.771,3.771,0,0,1,653.756,0h14.879a3.771,3.771,0,0,1,3.771,3.771V26.743A11.211,11.211,0,0,1,661.2,37.953" transform="translate(-567.604 -0.001)" fill="#ccc"/>
      <path id="Path_62252" data-name="Path 62252" d="M718.331,55.985a3.413,3.413,0,1,1-3.413-3.413,3.413,3.413,0,0,1,3.413,3.413" transform="translate(-621.326 -45.909)" fill="#fff"/>
      <path id="Path_62253" data-name="Path 62253" d="M2.019,186.218a2.019,2.019,0,0,1,0-4.039H9.933a2.019,2.019,0,1,1,0,4.039Z" transform="translate(0 -159.089)" fill="#054060"/>
      <path id="Path_62254" data-name="Path 62254" d="M163.129,36.265a2.019,2.019,0,0,1-2.019-2.019V26.331a2.019,2.019,0,1,1,4.039,0v7.914a2.019,2.019,0,0,1-2.019,2.019" transform="translate(-140.69 -21.231)" fill="#054060"/>
      <path id="Path_62255" data-name="Path 62255" d="M11.8,38.136a2.013,2.013,0,0,1-1.428-.592L.591,27.76A2.019,2.019,0,0,1,3.447,24.9l9.785,9.785A2.019,2.019,0,0,1,11.8,38.136" transform="translate(0 -21.231)" fill="#054060"/>
      <g id="Group_78608" data-name="Group 78608" transform="translate(135.959 68.444)">
        <path id="Path_62248" data-name="Path 62248" d="M1072.715,571.7a31.678,31.678,0,1,1,31.678,31.678,31.678,31.678,0,0,1-31.678-31.678" transform="translate(-1072.715 -540.021)" fill="#2be05e"/>
        <g id="Group_78151" data-name="Group 78151" transform="translate(9.468 15.659)">
          <path id="Path_60416" data-name="Path 60416" d="M37.938,23.982a1.37,1.37,0,0,0,.114.286c.009.014.011.031.021.045a.866.866,0,0,0,.067.069.89.89,0,0,0,.109.112,1.217,1.217,0,0,0,.257.147.889.889,0,0,0,.151.038.864.864,0,0,0,.094.023L61.49,26.381a.906.906,0,0,0,.69-1.562l-6.709-6.355h2.785a.906.906,0,0,0,0-1.813H54.9a.9.9,0,0,0-.348.07L55.086,7a.906.906,0,0,0-1.575-.66L38.149,23.187a.874.874,0,0,0-.051.08.885.885,0,0,0-.085.133,1.213,1.213,0,0,0-.085.282.889.889,0,0,0,0,.157.874.874,0,0,0,0,.1C37.925,23.952,37.935,23.966,37.938,23.982Z" transform="translate(-37.921 4.484)" fill="#fff"/>
          <path id="Path_60417" data-name="Path 60417" d="M31.025,14.781a.939.939,0,0,0-.105.006,2.673,2.673,0,0,1-.317.019H27.67a.906.906,0,0,0,0,1.813H30.6a4.67,4.67,0,0,0,.525-.03.907.907,0,0,0-.1-1.807Z" transform="translate(2.727 6.33)" fill="#fff"/>
          <path id="Path_60418" data-name="Path 60418" d="M37.705,32.435H36.55a5.61,5.61,0,0,0-2.529.605.906.906,0,0,0,.822,1.616,3.739,3.739,0,0,1,1.707-.408h1.155a.906.906,0,0,0,0-1.813Z" transform="translate(-10.084 -27.808)" fill="#fff"/>
          <path id="Path_60419" data-name="Path 60419" d="M38.423,14.781H35.069a.906.906,0,0,0,0,1.813h3.354a.906.906,0,0,0,0-1.813Z" transform="translate(-11.38 6.355)" fill="#fff"/>
          <path id="Path_60420" data-name="Path 60420" d="M41.172,26.215a.9.9,0,0,0-1.18.5,5.606,5.606,0,0,0-.1,3.918.906.906,0,1,0,1.714-.591,3.794,3.794,0,0,1,.069-2.646A.906.906,0,0,0,41.172,26.215Z" transform="translate(-18.704 -18.6)" fill="#fff"/>
          <path id="Path_60421" data-name="Path 60421" d="M37.944,23.293h-.911a3.765,3.765,0,0,1-1.879-.5.906.906,0,0,0-.906,1.57,5.582,5.582,0,0,0,2.785.743h.911a.906.906,0,0,0,0-1.813Z" transform="translate(-10.566 -9.311)" fill="#fff"/>
          <path id="Path_60422" data-name="Path 60422" d="M24.34,16.78a.907.907,0,0,0-.826,1.278,2.65,2.65,0,0,1,.233,1.093,2.68,2.68,0,0,1-.346,1.317.906.906,0,1,0,1.577.894,4.488,4.488,0,0,0,.19-4.047A.907.907,0,0,0,24.34,16.78Z" transform="translate(12.252 -0.687)" fill="#fff"/>
          <path id="Path_60423" data-name="Path 60423" d="M23.966,35.085a.905.905,0,0,0-1.156.554,6.041,6.041,0,0,1-1.585,2.413.906.906,0,0,0,1.233,1.329,7.862,7.862,0,0,0,2.062-3.14A.907.907,0,0,0,23.966,35.085Z" transform="translate(15.369 -35.033)" fill="#fff"/>
          <path id="Path_60424" data-name="Path 60424" d="M30.844,22.683a4.546,4.546,0,0,0-.94-.1h-2.6a.906.906,0,0,0,0,1.813h2.6a2.728,2.728,0,0,1,.563.059.907.907,0,0,0,.379-1.773Z" transform="translate(3.426 -8.601)" fill="#fff"/>
          <path id="Path_60425" data-name="Path 60425" d="M30.388,32.994a.909.909,0,0,0-.236.032,6.033,6.033,0,0,1-1.57.207H27.055a.906.906,0,0,0,0,1.813h1.526a7.839,7.839,0,0,0,2.042-.27.907.907,0,0,0-.235-1.782Z" transform="translate(3.92 -28.606)" fill="#fff"/>
        </g>
      </g>
    </g>
  </g>
</svg>
