<svg xmlns="http://www.w3.org/2000/svg" xmlns:xlink="http://www.w3.org/1999/xlink" width="199.316" height="141.418" viewBox="0 0 199.316 141.418">
  <defs>
    <clipPath id="clip-path">
      <rect id="Rectangle_31564" data-name="Rectangle 31564" width="199.316" height="141.418" fill="none"/>
    </clipPath>
  </defs>
  <g id="Group_77291" data-name="Group 77291" transform="translate(0 -0.001)">
    <g id="Group_77290" data-name="Group 77290" transform="translate(0 0.001)" clip-path="url(#clip-path)">
      <path id="Path_62240" data-name="Path 62240" d="M162.869,397.462l-127.216,11.5A10.179,10.179,0,0,1,24.6,399.741l-6.393-70.723a10.179,10.179,0,0,1,9.221-11.054l127.216-11.5a10.179,10.179,0,0,1,11.054,9.221l6.393,70.723a10.178,10.178,0,0,1-9.221,11.054" transform="translate(-15.863 -267.586)" fill="#e6e6e6"/>
      <path id="Path_62241" data-name="Path 62241" d="M292.127,270.9H164.393a10.179,10.179,0,0,1-10.179-10.179V189.71a10.179,10.179,0,0,1,10.179-10.179H292.127a10.179,10.179,0,0,1,10.179,10.179v71.011A10.179,10.179,0,0,1,292.127,270.9" transform="translate(-134.668 -156.777)" fill="#fff"/>
      <path id="Path_62242" data-name="Path 62242" d="M252.072,259.007H150.48a12.212,12.212,0,0,1-12.2-12.2V175.8a12.212,12.212,0,0,1,12.2-12.2H278.214a12.212,12.212,0,0,1,12.2,12.2v28.273a2.019,2.019,0,0,1-4.039,0V175.8a8.169,8.169,0,0,0-8.16-8.159H150.48a8.169,8.169,0,0,0-8.159,8.159v71.011a8.169,8.169,0,0,0,8.159,8.159H252.072a2.019,2.019,0,1,1,0,4.038" transform="translate(-120.756 -142.865)" fill="#054060"/>
      <path id="Path_62243" data-name="Path 62243" d="M383.925,331.376a12.406,12.406,0,1,1,12.406,12.406,12.407,12.407,0,0,1-12.406-12.406" transform="translate(-335.265 -278.543)" fill="#2daef5"/>
      <path id="Path_62244" data-name="Path 62244" d="M326.787,578.508H291.246a7.29,7.29,0,0,1-6.761-10.033,26.507,26.507,0,0,1,49.064,0,7.29,7.29,0,0,1-6.761,10.033" transform="translate(-247.95 -482.048)" fill="#2daef5"/>
      <path id="Path_62245" data-name="Path 62245" d="M795.715,430.2H751.454a2.019,2.019,0,0,1,0-4.039h44.261a2.019,2.019,0,1,1,0,4.039" transform="translate(-654.449 -372.148)" fill="#2daef5"/>
      <path id="Path_62246" data-name="Path 62246" d="M786.784,528.086H751.454a2.019,2.019,0,0,1,0-4.039h35.329a2.019,2.019,0,1,1,0,4.039" transform="translate(-654.449 -457.629)" fill="#ccc"/>
      <path id="Path_62247" data-name="Path 62247" d="M778.477,625.973H751.454a2.019,2.019,0,1,1,0-4.038h27.022a2.019,2.019,0,1,1,0,4.038" transform="translate(-654.449 -543.109)" fill="#ccc"/>
      <path id="Path_62248" data-name="Path 62248" d="M1136.072,571.7a31.678,31.678,0,1,1-31.678-31.678,31.678,31.678,0,0,1,31.678,31.678" transform="translate(-936.756 -471.577)" fill="#2be05e"/>
      <path id="Path_62251" data-name="Path 62251" d="M661.2,37.953h0a11.211,11.211,0,0,1-11.211-11.211V3.772A3.771,3.771,0,0,1,653.756,0h14.879a3.771,3.771,0,0,1,3.771,3.771V26.743A11.211,11.211,0,0,1,661.2,37.953" transform="translate(-567.604 -0.001)" fill="#ccc"/>
      <path id="Path_62252" data-name="Path 62252" d="M718.331,55.985a3.413,3.413,0,1,1-3.413-3.413,3.413,3.413,0,0,1,3.413,3.413" transform="translate(-621.326 -45.909)" fill="#fff"/>
      <path id="Path_62253" data-name="Path 62253" d="M2.019,186.218a2.019,2.019,0,0,1,0-4.039H9.933a2.019,2.019,0,1,1,0,4.039Z" transform="translate(0 -159.089)" fill="#054060"/>
      <path id="Path_62254" data-name="Path 62254" d="M163.129,36.265a2.019,2.019,0,0,1-2.019-2.019V26.331a2.019,2.019,0,1,1,4.039,0v7.914a2.019,2.019,0,0,1-2.019,2.019" transform="translate(-140.69 -21.231)" fill="#054060"/>
      <path id="Path_62255" data-name="Path 62255" d="M11.8,38.136a2.013,2.013,0,0,1-1.428-.592L.591,27.76A2.019,2.019,0,0,1,3.447,24.9l9.785,9.785A2.019,2.019,0,0,1,11.8,38.136" transform="translate(0 -21.231)" fill="#054060"/>
      <g id="Group_78151" data-name="Group 78151" transform="translate(0 0.585)">
        <path id="Path_60416" data-name="Path 60416" d="M62.446,8.445a1.37,1.37,0,0,0-.114-.286c-.009-.014-.011-.031-.021-.045a.866.866,0,0,0-.067-.069.89.89,0,0,0-.109-.112,1.216,1.216,0,0,0-.257-.147.889.889,0,0,0-.151-.038.864.864,0,0,0-.094-.023L38.894,6.047a.906.906,0,0,0-.69,1.562l6.709,6.355H42.129a.906.906,0,0,0,0,1.813h3.354a.9.9,0,0,0,.348-.07L45.3,25.427a.906.906,0,0,0,1.575.66L62.235,9.24a.874.874,0,0,0,.051-.08.885.885,0,0,0,.085-.133,1.213,1.213,0,0,0,.085-.282.889.889,0,0,0,0-.157.874.874,0,0,0,0-.1C62.459,8.475,62.449,8.461,62.446,8.445Z" transform="translate(127.385 78.645)" fill="#fff"/>
        <path id="Path_60417" data-name="Path 60417" d="M27.669,16.618a.939.939,0,0,0,.105-.006,2.673,2.673,0,0,1,.317-.019h2.932a.906.906,0,0,0,0-1.813H28.091a4.67,4.67,0,0,0-.525.03.907.907,0,0,0,.1,1.807Z" transform="translate(128.428 77.827)" fill="#fff"/>
        <path id="Path_60418" data-name="Path 60418" d="M34.432,34.754h1.155a5.61,5.61,0,0,0,2.529-.605.906.906,0,0,0-.822-1.616,3.739,3.739,0,0,1-1.707.408H34.432a.906.906,0,1,0,0,1.813Z" transform="translate(127.795 76.176)" fill="#fff"/>
        <path id="Path_60419" data-name="Path 60419" d="M35.069,16.594h3.354a.906.906,0,0,0,0-1.813H35.069a.906.906,0,0,0,0,1.813Z" transform="translate(127.735 77.827)" fill="#fff"/>
        <path id="Path_60420" data-name="Path 60420" d="M40.151,31.176a.9.9,0,0,0,1.18-.5,5.606,5.606,0,0,0,.1-3.918.906.906,0,1,0-1.714.591A3.794,3.794,0,0,1,39.651,30,.906.906,0,0,0,40.151,31.176Z" transform="translate(127.229 76.765)" fill="#fff"/>
        <path id="Path_60421" data-name="Path 60421" d="M34.7,24.484h.911a3.765,3.765,0,0,1,1.879.5.906.906,0,0,0,.906-1.57,5.582,5.582,0,0,0-2.785-.743H34.7a.906.906,0,1,0,0,1.813Z" transform="translate(127.77 77.09)" fill="#fff"/>
        <path id="Path_60422" data-name="Path 60422" d="M24.5,21.823a.907.907,0,0,0,.826-1.278,2.65,2.65,0,0,1-.233-1.093,2.68,2.68,0,0,1,.346-1.317.906.906,0,1,0-1.577-.894,4.488,4.488,0,0,0-.19,4.047A.907.907,0,0,0,24.5,21.823Z" transform="translate(128.753 77.641)" fill="#fff"/>
        <path id="Path_60423" data-name="Path 60423" d="M21.541,39.571a.905.905,0,0,0,1.156-.554A6.041,6.041,0,0,1,24.281,36.6a.906.906,0,0,0-1.233-1.329,7.862,7.862,0,0,0-2.062,3.14A.907.907,0,0,0,21.541,39.571Z" transform="translate(128.973 75.934)" fill="#fff"/>
        <path id="Path_60424" data-name="Path 60424" d="M27.117,24.377a4.546,4.546,0,0,0,.94.1h2.6a.906.906,0,0,0,0-1.813h-2.6A2.728,2.728,0,0,1,27.5,22.6a.907.907,0,0,0-.379,1.773Z" transform="translate(128.461 77.098)" fill="#fff"/>
        <path id="Path_60425" data-name="Path 60425" d="M27.055,35.045a.909.909,0,0,0,.236-.032,6.033,6.033,0,0,1,1.57-.207h1.526a.906.906,0,0,0,0-1.813H28.862a7.839,7.839,0,0,0-2.042.27.907.907,0,0,0,.235,1.782Z" transform="translate(128.484 76.124)" fill="#fff"/>
      </g>
    </g>
  </g>
</svg>
