<svg xmlns="http://www.w3.org/2000/svg" xmlns:xlink="http://www.w3.org/1999/xlink" width="183.192" height="173.371" viewBox="0 0 183.192 173.371">
  <defs>
    <clipPath id="clip-path">
      <rect id="Rectangle_31690" data-name="Rectangle 31690" width="171.27" height="171.1" fill="#e6e6e6"/>
    </clipPath>
    <clipPath id="clip-path-2">
      <path id="Path_62256" data-name="Path 62256" d="M154.058,122.639c12.118-22.984,29.672-62.744,27.4-89.511A30.883,30.883,0,0,0,162.878,7.407C125.655-8.653,51.611-.074,21.542,47.6c-33.219,52.663,14.795,102.972,52.186,119.029S138.279,152.567,154.058,122.639Z" transform="translate(-10.388 0.004)" fill="#e6e6e6" clip-rule="evenodd"/>
    </clipPath>
    <clipPath id="clip-path-3">
      <path id="Path_62258" data-name="Path 62258" d="M20.434,453.71a.324.324,0,0,0,.3.345c.78.053,1.583.08,2.387.08h.238a.323.323,0,1,0,0-.647h0c-.871.005-1.736-.021-2.577-.078h-.019a.326.326,0,0,0-.328.3m8.069-.6c-.859.12-1.723.213-2.567.276a.323.323,0,0,0,.024.646h.025c.858-.065,1.736-.159,2.608-.281a.323.323,0,1,0-.09-.64m-13.2-.234a.323.323,0,0,0,.238.391c.836.2,1.7.375,2.581.508a.319.319,0,0,0,.049,0,.323.323,0,0,0,.048-.643c-.858-.13-1.707-.3-2.524-.5a.327.327,0,0,0-.394.237m18.267-.771c-.841.215-1.689.408-2.52.574a.323.323,0,0,0,.128.634c.843-.168,1.7-.363,2.555-.581a.323.323,0,0,0-.081-.636.329.329,0,0,0-.081.01m-23.139-1.025a.322.322,0,0,0,.152.432,24.3,24.3,0,0,0,2.435,1.006.326.326,0,0,0,.415-.2.323.323,0,0,0-.2-.413,23.669,23.669,0,0,1-2.369-.979.326.326,0,0,0-.435.151m28.078-.5c-.816.3-1.64.572-2.451.824a.323.323,0,0,0,.1.632.326.326,0,0,0,.1-.015c.821-.254,1.655-.535,2.48-.834a.323.323,0,1,0-.223-.607m4.784-1.968c-.788.363-1.586.711-2.371,1.035a.324.324,0,0,0,.249.6c.794-.327,1.6-.678,2.4-1.045a.322.322,0,0,0,.158-.429.327.327,0,0,0-.432-.157m-37.182-.388a.322.322,0,0,0,.038.455,20.151,20.151,0,0,0,2.128,1.558.327.327,0,0,0,.45-.1.322.322,0,0,0-.1-.447,19.487,19.487,0,0,1-2.059-1.507.327.327,0,0,0-.459.038m41.813-1.923c-.751.4-1.524.8-2.3,1.187a.322.322,0,0,0-.144.434.326.326,0,0,0,.437.144c.779-.389,1.558-.792,2.314-1.2a.322.322,0,0,0,.132-.438.327.327,0,0,0-.441-.132m-45.177-2a.322.322,0,0,0-.1.447,17.316,17.316,0,0,0,1.6,2.095.327.327,0,0,0,.459.027.322.322,0,0,0,.027-.456A16.656,16.656,0,0,1,3.2,444.392a.327.327,0,0,0-.45-.1m49.666-.567c-.73.446-1.479.888-2.226,1.315a.322.322,0,0,0-.12.441.327.327,0,0,0,.444.119c.752-.43,1.507-.875,2.242-1.324a.322.322,0,0,0,.107-.445.327.327,0,0,0-.448-.106M56.74,440.9c-.7.491-1.424.977-2.142,1.445a.322.322,0,0,0-.093.448.327.327,0,0,0,.451.092c.723-.472,1.449-.962,2.158-1.456a.322.322,0,0,0,.079-.45.327.327,0,0,0-.453-.079M.763,439.542a.323.323,0,0,0-.234.394,16.271,16.271,0,0,0,.866,2.49.326.326,0,0,0,.429.166.322.322,0,0,0,.167-.426,15.633,15.633,0,0,1-.831-2.391.325.325,0,0,0-.4-.232m60.127-1.717c-.683.537-1.373,1.064-2.053,1.569a.322.322,0,0,0-.066.452.327.327,0,0,0,.455.066c.684-.508,1.38-1.039,2.067-1.58a.322.322,0,0,0,.053-.454.327.327,0,0,0-.457-.053m3.987-3.291c-.692.6-1.338,1.141-1.975,1.668a.322.322,0,0,0-.042.455.327.327,0,0,0,.458.042c.641-.53,1.29-1.078,1.985-1.677a.322.322,0,0,0,.033-.456.327.327,0,0,0-.459-.032M.029,434.71c-.019.34-.029.683-.029,1.02,0,.539.025,1.081.075,1.61a.325.325,0,0,0,.324.293H.43a.324.324,0,0,0,.294-.352c-.048-.51-.072-1.031-.072-1.55,0-.325.01-.656.028-.983a.324.324,0,0,0-.306-.341H.351a.323.323,0,0,0-.322.3m68.728-3.6q-.952.852-1.933,1.724a.322.322,0,0,0-.026.457.327.327,0,0,0,.46.026q.985-.872,1.936-1.726a.322.322,0,0,0,.024-.456.326.326,0,0,0-.46-.024M1.044,429.566A20.959,20.959,0,0,0,.366,432.1a.323.323,0,0,0,.256.38.331.331,0,0,0,.064.006.325.325,0,0,0,.319-.26,20.288,20.288,0,0,1,.657-2.459.323.323,0,0,0-.206-.409.327.327,0,0,0-.412.2m71.6-1.9c-.585.5-1.206,1.047-1.953,1.711a.322.322,0,0,0-.026.456.327.327,0,0,0,.459.026c.745-.661,1.363-1.2,1.945-1.7a.322.322,0,0,0,.033-.456.327.327,0,0,0-.459-.033m-69.4-2.856c-.452.765-.864,1.545-1.223,2.318a.322.322,0,0,0,.159.429.326.326,0,0,0,.432-.158c.35-.754.752-1.515,1.193-2.261a.324.324,0,0,0-.28-.487.326.326,0,0,0-.281.16m73.443-.424c-.667.5-1.336,1.029-2.044,1.606a.322.322,0,0,0-.045.455.327.327,0,0,0,.458.045c.7-.572,1.364-1.093,2.025-1.591a.322.322,0,0,0,.062-.453.327.327,0,0,0-.456-.062m4.31-2.933c-.728.441-1.466.916-2.193,1.412a.322.322,0,0,0-.084.449.327.327,0,0,0,.453.083c.718-.489,1.446-.958,2.164-1.393a.322.322,0,0,0,.109-.444.326.326,0,0,0-.447-.108m-74.714-.9c-.57.679-1.111,1.374-1.606,2.066a.322.322,0,0,0,.077.451A.327.327,0,0,0,5.2,423c.486-.678,1.016-1.36,1.576-2.026a.322.322,0,0,0-.041-.455.327.327,0,0,0-.458.041m79.329-1.536c-.791.36-1.58.747-2.344,1.151a.322.322,0,0,0-.135.437.327.327,0,0,0,.44.134c.753-.4,1.53-.779,2.309-1.133a.324.324,0,0,0-.271-.588m4.866-1.89c-.833.273-1.661.568-2.459.878a.323.323,0,0,0,.118.625.327.327,0,0,0,.118-.022c.788-.305,1.6-.6,2.427-.866a.323.323,0,0,0-.1-.63.327.327,0,0,0-.1.016m-80.673-.4c-.578.627-1.174,1.262-1.772,1.885a.322.322,0,0,0,.011.457.327.327,0,0,0,.46-.011c.6-.627,1.2-1.265,1.781-1.9a.322.322,0,0,0-.021-.457.327.327,0,0,0-.46.021m85.705-.984c-.861.2-1.713.41-2.532.634a.323.323,0,0,0,.173.623c.81-.222,1.653-.434,2.5-.628a.323.323,0,0,0-.073-.638.327.327,0,0,0-.073.008m-82.286-2.9c-.549.651-1.117,1.31-1.688,1.958a.322.322,0,0,0,.03.456.327.327,0,0,0,.459-.03c.574-.652,1.146-1.314,1.7-1.969a.322.322,0,0,0-.041-.455.327.327,0,0,0-.458.04m3.236-4.03c-.517.676-1.053,1.36-1.594,2.034a.322.322,0,0,0,.051.454.327.327,0,0,0,.457-.051c.544-.678,1.084-1.366,1.6-2.046a.322.322,0,0,0-.062-.453.327.327,0,0,0-.456.062m3.03-4.183c-.481.7-.981,1.412-1.488,2.111a.322.322,0,0,0,.074.451.327.327,0,0,0,.454-.074c.51-.7,1.013-1.418,1.5-2.125a.322.322,0,0,0-.086-.449.327.327,0,0,0-.452.086m2.8-4.338c-.44.727-.9,1.464-1.368,2.188a.324.324,0,0,0,.274.5.326.326,0,0,0,.274-.149c.471-.73.934-1.471,1.378-2.2a.322.322,0,0,0-.111-.444.327.327,0,0,0-.447.11m2.537-4.492c-.395.752-.81,1.514-1.234,2.265a.322.322,0,0,0,.125.44.327.327,0,0,0,.443-.124c.428-.757.846-1.525,1.244-2.283a.322.322,0,0,0-.138-.436.326.326,0,0,0-.439.137m2.247-4.64c-.345.778-.71,1.565-1.085,2.338a.322.322,0,0,0,.152.431.326.326,0,0,0,.434-.151c.378-.78.746-1.573,1.094-2.358a.325.325,0,0,0-.3-.454.326.326,0,0,0-.3.193m1.926-4.779c-.29.8-.6,1.609-.921,2.406a.323.323,0,0,0,.181.42.326.326,0,0,0,.423-.18c.324-.8.637-1.62.929-2.427a.325.325,0,0,0-.612-.219m1.578-4.9c-.231.82-.481,1.649-.743,2.465a.323.323,0,0,0,.211.406.326.326,0,0,0,.409-.209c.265-.824.518-1.661.751-2.488a.323.323,0,0,0-.226-.4.329.329,0,0,0-.087-.012.325.325,0,0,0-.314.236m1.2-5c-.167.836-.354,1.681-.554,2.514a.325.325,0,0,0,.633.15c.2-.84.39-1.694.56-2.538a.323.323,0,0,0-.256-.38.327.327,0,0,0-.383.254M19.989,374.3a.324.324,0,0,0,.307.341c.652.036,1.328.055,2.009.055q.3,0,.615,0a.324.324,0,0,0,.32-.329.328.328,0,0,0-.331-.318c-.884.014-1.746,0-2.577-.049h-.02a.323.323,0,0,0-.324.305m8.071-.646q-.342.047-.69.087c-.635.074-1.267.135-1.88.182a.323.323,0,0,0,.025.645h.025c.621-.048,1.262-.11,1.9-.184q.355-.041.7-.089a.323.323,0,0,0-.045-.644l-.044,0m-13.2-.157a.323.323,0,0,0,.237.392,26.247,26.247,0,0,0,2.585.5.314.314,0,0,0,.046,0,.323.323,0,0,0,.046-.643,25.57,25.57,0,0,1-2.52-.484.326.326,0,0,0-.394.236m-4.812-1.926a.322.322,0,0,0,.128.439,19.133,19.133,0,0,0,2.4,1.1.326.326,0,0,0,.42-.187.323.323,0,0,0-.188-.417,18.466,18.466,0,0,1-2.32-1.061.327.327,0,0,0-.442.127m22.543-.173c-.053.44-.11.882-.173,1.324-.594.177-1.206.337-1.826.476a.323.323,0,1,0,.144.631c.534-.12,1.062-.255,1.579-.4q-.04.261-.081.521a.323.323,0,0,0,.27.37.329.329,0,0,0,.052,0,.325.325,0,0,0,.321-.273q.066-.413.127-.829l.266-.086a.323.323,0,0,0,.207-.408.326.326,0,0,0-.373-.216q.071-.519.132-1.035a.324.324,0,0,0-.285-.359l-.039,0a.324.324,0,0,0-.323.285m5.135-.978a22.594,22.594,0,0,1-2.27,1.177.323.323,0,0,0,.134.618.327.327,0,0,0,.134-.029,23.3,23.3,0,0,0,2.336-1.211.322.322,0,0,0,.112-.443.327.327,0,0,0-.446-.112m-31.7-2.087a.322.322,0,0,0-.018.457,15.984,15.984,0,0,0,1.956,1.779.324.324,0,1,0,.4-.511,15.335,15.335,0,0,1-1.876-1.707.327.327,0,0,0-.46-.018m35.75-1.014a21.61,21.61,0,0,1-1.93,1.671.322.322,0,0,0-.059.453.327.327,0,0,0,.457.059,22.284,22.284,0,0,0,1.988-1.721.322.322,0,0,0,0-.457.327.327,0,0,0-.46,0M33,366.27c-.035.856-.087,1.72-.155,2.569a.324.324,0,0,0,.3.348h.026a.325.325,0,0,0,.324-.3c.069-.857.122-1.73.157-2.594a.324.324,0,0,0-.312-.336h-.013a.325.325,0,0,0-.325.31m-29.736-2.3a.322.322,0,0,0-.164.427,16.722,16.722,0,0,0,1.27,2.312.327.327,0,0,0,.45.094.322.322,0,0,0,.094-.447,16.087,16.087,0,0,1-1.221-2.223.326.326,0,0,0-.43-.163m41.732-.6a24.118,24.118,0,0,1-1.5,2.065.322.322,0,0,0,.048.455.327.327,0,0,0,.458-.048,24.733,24.733,0,0,0,1.545-2.12.324.324,0,0,0-.273-.5.325.325,0,0,0-.274.148m-11.667-2.582a.324.324,0,0,0-.314.334c.027.8.041,1.6.041,2.392v.182a.324.324,0,0,0,.324.324h0a.324.324,0,0,0,.325-.322v-.184c0-.795-.014-1.607-.042-2.414a.324.324,0,0,0-.327-.312h-.009M1.912,359a.324.324,0,0,0-.273.368A20.377,20.377,0,0,0,2.2,361.93a.325.325,0,0,0,.626-.177,19.73,19.73,0,0,1-.539-2.485.325.325,0,0,0-.321-.275.321.321,0,0,0-.05,0m45.452-.155c-.333.8-.7,1.582-1.081,2.321a.322.322,0,0,0,.14.436.326.326,0,0,0,.439-.139c.393-.755.765-1.553,1.1-2.372a.323.323,0,0,0-.177-.422.326.326,0,0,0-.425.176m-14.411-3.21a.324.324,0,0,0-.292.354c.089.887.161,1.727.219,2.567a.325.325,0,0,0,.324.3h.023a.324.324,0,0,0,.3-.345c-.059-.847-.131-1.693-.221-2.587a.326.326,0,0,0-.324-.291l-.032,0m-31.5-1.5c-.044.607-.067,1.219-.067,1.818,0,.267,0,.537.013.8a.324.324,0,0,0,.325.312h.011a.324.324,0,0,0,.314-.334c-.009-.258-.013-.521-.013-.78,0-.583.022-1.179.065-1.771a.324.324,0,0,0-.3-.346H1.781a.325.325,0,0,0-.326.3m47.514-.161c-.214.842-.455,1.671-.715,2.465a.325.325,0,0,0,.619.2c.264-.807.509-1.65.727-2.506a.323.323,0,0,0-.236-.393.326.326,0,0,0-.4.234M32.323,350.5a.324.324,0,0,0-.282.361q.052.4.109.837c.07.539.146,1.116.221,1.728a.325.325,0,0,0,.323.284l.04,0a.324.324,0,0,0,.283-.36c-.076-.613-.151-1.191-.222-1.732q-.056-.434-.108-.835a.324.324,0,0,0-.322-.283l-.042,0M2.361,348.98c-.235.836-.431,1.695-.582,2.553a.323.323,0,0,0,.264.374.326.326,0,0,0,.377-.263c.148-.837.339-1.675.568-2.49a.325.325,0,0,0-.627-.174m47.578-.053c-.118.861-.257,1.715-.414,2.537a.323.323,0,0,0,.259.378.336.336,0,0,0,.061.006.325.325,0,0,0,.319-.263c.159-.833.3-1.7.42-2.571a.324.324,0,0,0-.279-.364l-.043,0a.325.325,0,0,0-.323.28m-18.57-3.5a.323.323,0,0,0-.2.414,11.1,11.1,0,0,1,.585,2.438.325.325,0,0,0,.323.285l.04,0a.324.324,0,0,0,.284-.36,11.746,11.746,0,0,0-.619-2.58.326.326,0,0,0-.416-.195M4.306,344.116A22.683,22.683,0,0,0,3.2,346.5a.323.323,0,0,0,.183.42.329.329,0,0,0,.12.023.326.326,0,0,0,.3-.2,22.027,22.027,0,0,1,1.075-2.313.322.322,0,0,0-.133-.438.327.327,0,0,0-.441.132m46.088-.314c-.039.867-.1,1.731-.169,2.569a.324.324,0,0,0,.3.35h.029a.325.325,0,0,0,.324-.3c.074-.847.132-1.721.171-2.6a.324.324,0,0,0-.311-.337h-.011a.326.326,0,0,0-.328.309M28.54,341.13a.322.322,0,0,0-.017.457,13.239,13.239,0,0,1,1.544,2,.327.327,0,0,0,.448.1.322.322,0,0,0,.1-.445,13.9,13.9,0,0,0-1.619-2.1.327.327,0,0,0-.46-.017M7.467,339.9q-.159.149-.316.3a14.456,14.456,0,0,0-1.44,1.678.324.324,0,0,0,.262.514.326.326,0,0,0,.263-.132,13.8,13.8,0,0,1,1.375-1.6q.15-.149.3-.292a.322.322,0,0,0,.014-.457.327.327,0,0,0-.46-.014m43.268-1.585a.324.324,0,0,0-.315.334c.024.757.037,1.517.037,2.261q0,.156,0,.314a.324.324,0,0,0,.324.325h0a.324.324,0,0,0,.325-.322q0-.159,0-.316c0-.75-.013-1.518-.037-2.282a.324.324,0,0,0-.321-.313h-.015M24.349,338.1a.322.322,0,0,0,.136.437,15.7,15.7,0,0,1,2.15,1.359.324.324,0,1,0,.393-.515,16.361,16.361,0,0,0-2.239-1.415.327.327,0,0,0-.44.135m-12.421-1.033a13.909,13.909,0,0,0-2.367,1.21.322.322,0,0,0-.1.447.327.327,0,0,0,.45.1,13.241,13.241,0,0,1,2.256-1.153.323.323,0,0,0-.12-.624.327.327,0,0,0-.12.023m7.475-.517a.323.323,0,0,0,.268.372,15.848,15.848,0,0,1,2.472.615.326.326,0,0,0,.413-.2.323.323,0,0,0-.2-.41,16.5,16.5,0,0,0-2.574-.641.333.333,0,0,0-.054,0,.324.324,0,0,0-.32.271m-2.273-.475a14.811,14.811,0,0,0-2.646.254.323.323,0,1,0,.122.635,14.154,14.154,0,0,1,2.529-.243.323.323,0,1,0,0-.647Zm33.233-2.914a.324.324,0,0,0-.291.354c.087.848.161,1.712.219,2.567a.325.325,0,0,0,.324.3h.022a.324.324,0,0,0,.3-.344c-.058-.863-.133-1.734-.22-2.589a.324.324,0,0,0-.323-.29l-.034,0m-.762-5.12a.324.324,0,0,0-.254.381c0,.009.195.952.416,2.535a.325.325,0,0,0,.322.279.339.339,0,0,0,.045,0,.324.324,0,0,0,.277-.365c-.225-1.605-.415-2.537-.423-2.576a.325.325,0,0,0-.319-.259.33.33,0,0,0-.065.007" transform="translate(0 -328.032)" fill="#054060"/>
    </clipPath>
    <clipPath id="clip-path-4">
      <rect id="Rectangle_31695" data-name="Rectangle 31695" width="172.192" height="171.1" fill="none"/>
    </clipPath>
    <clipPath id="clip-path-5">
      <rect id="Rectangle_31720" data-name="Rectangle 31720" width="67.855" height="139.219" fill="none"/>
    </clipPath>
    <clipPath id="clip-path-6">
      <rect id="Rectangle_31706" data-name="Rectangle 31706" width="66.388" height="20.143" fill="#6abdea"/>
    </clipPath>
    <clipPath id="clip-path-7">
      <path id="Path_62276" data-name="Path 62276" d="M837.738,784.088H897.05a3.538,3.538,0,0,1,3.538,3.538v13.067a3.538,3.538,0,0,1-3.538,3.538H837.738a3.538,3.538,0,0,1-3.538-3.538V787.626a3.538,3.538,0,0,1,3.538-3.538" transform="translate(-834.2 -784.088)" fill="#6abdea" clip-rule="evenodd"/>
    </clipPath>
    <clipPath id="clip-path-8">
      <path id="Path_62277" data-name="Path 62277" d="M859.7,817.026a7.416,7.416,0,1,0,7.416-7.422,7.419,7.419,0,0,0-7.416,7.422" transform="translate(-859.697 -809.605)" fill="#2daef5"/>
    </clipPath>
    <clipPath id="clip-path-9">
      <path id="Path_62278" data-name="Path 62278" d="M1029.482,818.111a1.5,1.5,0,0,0,0,3h38.136a1.5,1.5,0,0,0,0-3Z" transform="translate(-1027.98 -818.111)" fill="#2daef5"/>
    </clipPath>
    <clipPath id="clip-path-10">
      <path id="Path_62279" data-name="Path 62279" d="M1029.482,865.742a1.5,1.5,0,0,0,0,3h28.425a1.5,1.5,0,0,0,0-3Z" transform="translate(-1027.98 -865.742)" fill="#2daef5"/>
    </clipPath>
    <clipPath id="clip-path-11">
      <rect id="Rectangle_31712" data-name="Rectangle 31712" width="11.653" height="2.12" fill="#2daef5"/>
    </clipPath>
    <clipPath id="clip-path-12">
      <path id="Path_62280" data-name="Path 62280" d="M1029.04,923.58h9.533a1.06,1.06,0,0,1,0,2.12h-9.533a1.06,1.06,0,0,1,0-2.12" transform="translate(-1027.98 -923.58)" fill="#2daef5" clip-rule="evenodd"/>
    </clipPath>
    <clipPath id="clip-path-20">
      <rect id="Rectangle_31706-3" data-name="Rectangle 31706" width="66.388" height="20.143" fill="#ccc"/>
    </clipPath>
    <clipPath id="clip-path-21">
      <path id="Path_62276-3" data-name="Path 62276" d="M837.738,784.088H897.05a3.538,3.538,0,0,1,3.538,3.538v13.067a3.538,3.538,0,0,1-3.538,3.538H837.738a3.538,3.538,0,0,1-3.538-3.538V787.626a3.538,3.538,0,0,1,3.538-3.538" transform="translate(-834.2 -784.088)" fill="#f1bfc9" clip-rule="evenodd"/>
    </clipPath>
    <clipPath id="clip-path-22">
      <path id="Path_62277-3" data-name="Path 62277" d="M859.7,817.026a7.416,7.416,0,1,0,7.416-7.422,7.419,7.419,0,0,0-7.416,7.422" transform="translate(-859.697 -809.605)" fill="#e48593"/>
    </clipPath>
    <clipPath id="clip-path-23">
      <path id="Path_62278-3" data-name="Path 62278" d="M1029.482,818.111a1.5,1.5,0,0,0,0,3h38.136a1.5,1.5,0,0,0,0-3Z" transform="translate(-1027.98 -818.111)" fill="#e48593"/>
    </clipPath>
    <clipPath id="clip-path-24">
      <path id="Path_62279-3" data-name="Path 62279" d="M1029.482,865.742a1.5,1.5,0,0,0,0,3h28.425a1.5,1.5,0,0,0,0-3Z" transform="translate(-1027.98 -865.742)" fill="#e48593"/>
    </clipPath>
    <clipPath id="clip-path-25">
      <rect id="Rectangle_31712-3" data-name="Rectangle 31712" width="11.653" height="2.12" fill="#e48593"/>
    </clipPath>
    <clipPath id="clip-path-26">
      <path id="Path_62280-3" data-name="Path 62280" d="M1029.04,923.58h9.533a1.06,1.06,0,0,1,0,2.12h-9.533a1.06,1.06,0,0,1,0-2.12" transform="translate(-1027.98 -923.58)" fill="#e48593" clip-rule="evenodd"/>
    </clipPath>
    <clipPath id="clip-path-27">
      <path id="Path_62270" data-name="Path 62270" d="M523.211,221.228l4.33-5.577-7.306-2.706Z" transform="translate(-520.234 -212.946)" fill="none"/>
    </clipPath>
    <clipPath id="clip-path-28">
      <path id="Path_62271" data-name="Path 62271" d="M402.644,19.063a.893.893,0,0,0-.262,1.634l27.19,16.424a2.227,2.227,0,0,0,3.1-.828L447.99,8.635Z" transform="translate(-401.951 -8.635)" fill="#2daef5"/>
    </clipPath>
    <clipPath id="clip-path-29">
      <path id="Path_62272" data-name="Path 62272" d="M520.268,26.775l5.108,5-.728-2.332L555.8,8.635Z" transform="translate(-520.268 -8.635)" fill="none"/>
    </clipPath>
    <clipPath id="clip-path-30">
      <path id="Path_62273" data-name="Path 62273" d="M553.761,248.57l4.015-4.058-2.609-1.56Z" transform="translate(-553.761 -242.952)" fill="#031a27"/>
    </clipPath>
  </defs>
  <g id="Group_78008" data-name="Group 78008" transform="translate(-1284.904 -370.142)">
    <g id="Group_78005" data-name="Group 78005" transform="translate(1295.904 370.143)">
      <g id="Group_77980" data-name="Group 77980">
        <g id="Group_77933" data-name="Group 77933" transform="translate(0 0)">
          <g id="Group_78004" data-name="Group 78004">
            <g id="Group_77926" data-name="Group 77926" transform="translate(0.922 0)">
              <g id="Group_77925" data-name="Group 77925">
                <g id="Group_77924" data-name="Group 77924" clip-path="url(#clip-path)">
                  <g id="Group_77923" data-name="Group 77923" transform="translate(0 0)">
                    <g id="Group_77922" data-name="Group 77922" clip-path="url(#clip-path-2)">
                      <rect id="Rectangle_31689" data-name="Rectangle 31689" width="270.67" height="271.434" transform="matrix(0.607, -0.795, 0.795, 0.607, -114.366, 112.176)" fill="#e6e6e6"/>
                    </g>
                  </g>
                </g>
              </g>
            </g>
          </g>
        </g>
        <g id="Group_77935" data-name="Group 77935" transform="translate(-11 29.125)">
          <g id="Group_77934" data-name="Group 77934" clip-path="url(#clip-path-3)">
            <rect id="Rectangle_31694" data-name="Rectangle 31694" width="95.937" height="126.103" transform="translate(0 0)" fill="#054060"/>
          </g>
        </g>
        <g id="Group_77937" data-name="Group 77937" transform="translate(0 0)">
          <g id="Group_77936" data-name="Group 77936" clip-path="url(#clip-path-4)">
            <path id="Path_62269" data-name="Path 62269" d="M1375.143,585.025v7.429h.09s.271-.09.271-.272l-.271-7.157Z" transform="translate(-1253.049 -533.083)" fill="#6b6e71"/>
            <g id="Group_78001" data-name="Group 78001" transform="translate(-6.637 -10.11)">
              <path id="Path_62267" data-name="Path 62267" d="M759.069,481.6H806.24a7.786,7.786,0,0,0,7.721-7.764V355.669a8.4,8.4,0,0,0-8.356-8.4H761.713c-7.622.125-9.731,4.361-9.731,9.785V474.472a7.107,7.107,0,0,0,7.087,7.126" transform="translate(-681.433 -316.098)" fill="#fff"/>
              <g id="Group_77996" data-name="Group 77996" transform="translate(67.611 28.858)">
                <g id="Group_77996-2" data-name="Group 77996" clip-path="url(#clip-path-5)">
                  <path id="Path_62289" data-name="Path 62289" d="M0,109c0,.032,0,.061,0,.092C0,109.061,0,109.03,0,109Z" transform="translate(0 18.52)" fill="#27425f"/>
                  <path id="Path_62290" data-name="Path 62290" d="M0,10.007H0c0-.019,0-.037,0-.056,0,.019,0,.037,0,.056" transform="translate(0 1.691)" fill="#27425f"/>
                  <path id="Path_62291" data-name="Path 62291" d="M58,10.007c0-.019,0-.037,0-.056C58,9.97,58,9.988,58,10.007Z" transform="translate(9.854 1.691)" fill="#27425f"/>
                  <path id="Path_62292" data-name="Path 62292" d="M54.63,0a11.833,11.833,0,0,1,1.194.061A11.5,11.5,0,0,0,54.63,0H10.173A11.5,11.5,0,0,0,8.979.061,11.833,11.833,0,0,1,10.173,0Z" transform="translate(1.526)" fill="#27425f"/>
                  <path id="Path_62293" data-name="Path 62293" d="M10.174,119.009a11.873,11.873,0,0,1-1.2-.061,11.542,11.542,0,0,0,1.2.061h0Z" transform="translate(1.525 20.21)" fill="#27425f"/>
                  <path id="Path_62294" data-name="Path 62294" d="M28.164,139.219c-.26-1.534-.526-4.68-.526-4.68H11.7A7.027,7.027,0,0,1,4.68,127.52V11.7A7.027,7.027,0,0,1,11.7,4.68H56.156A7.027,7.027,0,0,1,63.175,11.7V87.172a22.74,22.74,0,0,0,4.68-.007V11.7c0-.019,0-.037,0-.056A11.714,11.714,0,0,0,57.35.061,11.833,11.833,0,0,0,56.156,0H11.7A11.868,11.868,0,0,0,10.5.061,11.713,11.713,0,0,0,0,11.643c0,.019,0,.037,0,.056V127.52c0,.032,0,.062,0,.092a11.717,11.717,0,0,0,10.5,11.546,11.873,11.873,0,0,0,1.2.061Z" fill="#27425f"/>
                </g>
              </g>
              <path id="Rectangle_31721" data-name="Rectangle 31721" d="M0,0H16.379a2.34,2.34,0,0,1,2.34,2.34v0a2.34,2.34,0,0,1-2.34,2.34H0a0,0,0,0,1,0,0V0A0,0,0,0,1,0,0Z" transform="translate(82.82 163.398)" fill="#27425f"/>
              <path id="Rectangle_31722" data-name="Rectangle 31722" d="M0,0H16.379a2.34,2.34,0,0,1,2.34,2.34v0a2.34,2.34,0,0,1-2.34,2.34H0a0,0,0,0,1,0,0V0A0,0,0,0,1,0,0Z" transform="translate(135.466 102.562) rotate(90)" fill="#27425f"/>
              <g id="Group_77998" data-name="Group 77998" transform="translate(56.934 51.821)">
                <g id="Group_77986" data-name="Group 77986" opacity="0.5">
                  <g id="Group_77953" data-name="Group 77953">
                    <g id="Group_77952" data-name="Group 77952" clip-path="url(#clip-path-6)">
                      <g id="Group_77951" data-name="Group 77951" transform="translate(0 0)">
                        <g id="Group_77950" data-name="Group 77950" clip-path="url(#clip-path-7)">
                          <rect id="Rectangle_31705" data-name="Rectangle 31705" width="53.799" height="66.314" transform="translate(-9.334 13.855) rotate(-56.032)" fill="#6abdea"/>
                        </g>
                      </g>
                    </g>
                  </g>
                </g>
                <g id="Group_77958" data-name="Group 77958" transform="translate(2.648 2.651)">
                  <g id="Group_77957" data-name="Group 77957" clip-path="url(#clip-path-8)">
                    <rect id="Rectangle_31708" data-name="Rectangle 31708" width="20.597" height="20.594" transform="translate(-6.878 10.209) rotate(-56.032)" fill="#2daef5"/>
                  </g>
                </g>
                <g id="Group_77982" data-name="Group 77982" transform="translate(20.127 3.534)">
                  <g id="Group_77960" data-name="Group 77960">
                    <g id="Group_77959" data-name="Group 77959" clip-path="url(#clip-path-9)">
                      <rect id="Rectangle_31709" data-name="Rectangle 31709" width="25.477" height="35.797" transform="matrix(0.559, -0.829, 0.829, 0.559, -1.392, 2.066)" fill="#2daef5"/>
                    </g>
                  </g>
                  <g id="Group_77962" data-name="Group 77962" transform="translate(0 4.948)">
                    <g id="Group_77961" data-name="Group 77961" clip-path="url(#clip-path-10)">
                      <rect id="Rectangle_31710" data-name="Rectangle 31710" width="20.051" height="27.743" transform="translate(-1.392 2.066) rotate(-56.032)" fill="#2daef5"/>
                    </g>
                  </g>
                  <g id="Group_77984" data-name="Group 77984" transform="translate(0 10.955)" style="mix-blend-mode: normal;isolation: isolate">
                    <g id="Group_77966" data-name="Group 77966">
                      <g id="Group_77965" data-name="Group 77965" clip-path="url(#clip-path-11)">
                        <g id="Group_77964" data-name="Group 77964" transform="translate(0 0)">
                          <g id="Group_77963" data-name="Group 77963" clip-path="url(#clip-path-12)">
                            <rect id="Rectangle_31711" data-name="Rectangle 31711" width="8.27" height="10.849" transform="translate(-0.983 1.458) rotate(-56.032)" fill="#2daef5"/>
                          </g>
                        </g>
                      </g>
                    </g>
                  </g>
                </g>
              </g>
              <g id="Group_77999" data-name="Group 77999" transform="translate(56.934 102.935)">
                <g id="Group_77986-2" data-name="Group 77986" transform="translate(0 0)" opacity="0.5">
                  <g id="Group_77953-2" data-name="Group 77953">
                    <g id="Group_77952-2" data-name="Group 77952" clip-path="url(#clip-path-6)">
                      <g id="Group_77951-2" data-name="Group 77951" transform="translate(0 0)">
                        <g id="Group_77950-2" data-name="Group 77950" clip-path="url(#clip-path-7)">
                          <rect id="Rectangle_31705-2" data-name="Rectangle 31705" width="53.799" height="66.314" transform="translate(-9.334 13.855) rotate(-56.032)" fill="#6abdea"/>
                        </g>
                      </g>
                    </g>
                  </g>
                </g>
                <g id="Group_77958-2" data-name="Group 77958" transform="translate(2.648 2.651)">
                  <g id="Group_77957-2" data-name="Group 77957" clip-path="url(#clip-path-8)">
                    <rect id="Rectangle_31708-2" data-name="Rectangle 31708" width="20.597" height="20.594" transform="translate(-6.878 10.209) rotate(-56.032)" fill="#2daef5"/>
                  </g>
                </g>
                <g id="Group_77982-2" data-name="Group 77982" transform="translate(20.127 3.534)">
                  <g id="Group_77960-2" data-name="Group 77960">
                    <g id="Group_77959-2" data-name="Group 77959" clip-path="url(#clip-path-9)">
                      <rect id="Rectangle_31709-2" data-name="Rectangle 31709" width="25.477" height="35.797" transform="matrix(0.559, -0.829, 0.829, 0.559, -1.392, 2.066)" fill="#2daef5"/>
                    </g>
                  </g>
                  <g id="Group_77962-2" data-name="Group 77962" transform="translate(0 4.948)">
                    <g id="Group_77961-2" data-name="Group 77961" clip-path="url(#clip-path-10)">
                      <rect id="Rectangle_31710-2" data-name="Rectangle 31710" width="20.051" height="27.743" transform="translate(-1.392 2.066) rotate(-56.032)" fill="#2daef5"/>
                    </g>
                  </g>
                  <g id="Group_77984-2" data-name="Group 77984" transform="translate(0 10.955)" style="mix-blend-mode: normal;isolation: isolate">
                    <g id="Group_77966-2" data-name="Group 77966">
                      <g id="Group_77965-2" data-name="Group 77965" clip-path="url(#clip-path-11)">
                        <g id="Group_77964-2" data-name="Group 77964" transform="translate(0 0)">
                          <g id="Group_77963-2" data-name="Group 77963" clip-path="url(#clip-path-12)">
                            <rect id="Rectangle_31711-2" data-name="Rectangle 31711" width="8.27" height="10.849" transform="translate(-0.983 1.458) rotate(-56.032)" fill="#2daef5"/>
                          </g>
                        </g>
                      </g>
                    </g>
                  </g>
                </g>
              </g>
              <g id="Group_78000" data-name="Group 78000" transform="translate(44.065 76.39)">
                <g id="Group_77986-3" data-name="Group 77986" transform="translate(0 0)" opacity="0.5">
                  <g id="Group_77953-3" data-name="Group 77953">
                    <g id="Group_77952-3" data-name="Group 77952" clip-path="url(#clip-path-20)">
                      <g id="Group_77951-3" data-name="Group 77951" transform="translate(0 0)">
                        <g id="Group_77950-3" data-name="Group 77950" clip-path="url(#clip-path-21)">
                          <rect id="Rectangle_31705-3" data-name="Rectangle 31705" width="53.799" height="66.314" transform="translate(-9.334 13.855) rotate(-56.032)" fill="#f1bfc9"/>
                        </g>
                      </g>
                    </g>
                  </g>
                </g>
                <g id="Group_77958-3" data-name="Group 77958" transform="translate(2.648 2.651)">
                  <g id="Group_77957-3" data-name="Group 77957" clip-path="url(#clip-path-22)">
                    <rect id="Rectangle_31708-3" data-name="Rectangle 31708" width="20.597" height="20.594" transform="translate(-6.878 10.209) rotate(-56.032)" fill="#e48593"/>
                  </g>
                </g>
                <g id="Group_77982-3" data-name="Group 77982" transform="translate(20.127 3.534)">
                  <g id="Group_77960-3" data-name="Group 77960">
                    <g id="Group_77959-3" data-name="Group 77959" clip-path="url(#clip-path-23)">
                      <rect id="Rectangle_31709-3" data-name="Rectangle 31709" width="25.477" height="35.797" transform="matrix(0.559, -0.829, 0.829, 0.559, -1.392, 2.066)" fill="#e48593"/>
                    </g>
                  </g>
                  <g id="Group_77962-3" data-name="Group 77962" transform="translate(0 4.948)">
                    <g id="Group_77961-3" data-name="Group 77961" clip-path="url(#clip-path-24)">
                      <rect id="Rectangle_31710-3" data-name="Rectangle 31710" width="20.051" height="27.743" transform="translate(-1.392 2.066) rotate(-56.032)" fill="#e48593"/>
                    </g>
                  </g>
                  <g id="Group_77984-3" data-name="Group 77984" transform="translate(0 10.955)" style="mix-blend-mode: normal;isolation: isolate">
                    <g id="Group_77966-3" data-name="Group 77966">
                      <g id="Group_77965-3" data-name="Group 77965" clip-path="url(#clip-path-25)">
                        <g id="Group_77964-3" data-name="Group 77964" transform="translate(0 0)">
                          <g id="Group_77963-3" data-name="Group 77963" clip-path="url(#clip-path-26)">
                            <rect id="Rectangle_31711-3" data-name="Rectangle 31711" width="8.27" height="10.849" transform="translate(-0.983 1.458) rotate(-56.032)" fill="#e48593"/>
                          </g>
                        </g>
                      </g>
                    </g>
                  </g>
                </g>
              </g>
            </g>
          </g>
        </g>
        <g id="Group_77939" data-name="Group 77939" transform="translate(46.19 18.907)">
          <g id="Group_77938" data-name="Group 77938" clip-path="url(#clip-path-27)">
            <rect id="Rectangle_31696" data-name="Rectangle 31696" width="8.176" height="9.039" transform="matrix(0.994, -0.11, 0.11, 0.994, -0.909, 0.101)" fill="#054060"/>
          </g>
        </g>
        <g id="Group_78002" data-name="Group 78002">
          <g id="Group_77941" data-name="Group 77941" transform="translate(24.933 0.767)">
            <g id="Group_77940" data-name="Group 77940" clip-path="url(#clip-path-28)">
              <rect id="Rectangle_31697" data-name="Rectangle 31697" width="46.084" height="28.888" transform="translate(-0.046 0)" fill="#2daef5"/>
            </g>
          </g>
          <g id="Group_77943" data-name="Group 77943" transform="translate(35.438 0.767)">
            <g id="Group_77942" data-name="Group 77942" clip-path="url(#clip-path-29)">
              <rect id="Rectangle_31698" data-name="Rectangle 31698" width="28.395" height="38.707" transform="translate(-3.564 22.573) rotate(-81.027)" fill="#054060"/>
            </g>
          </g>
          <g id="Group_77945" data-name="Group 77945" transform="translate(38.411 21.571)">
            <g id="Group_77944" data-name="Group 77944" clip-path="url(#clip-path-30)">
              <rect id="Rectangle_31699" data-name="Rectangle 31699" width="6.322" height="5.082" transform="matrix(0.205, -0.979, 0.979, 0.205, -1.128, 5.382)" fill="#031a27"/>
            </g>
          </g>
        </g>
        <g id="Group_77981" data-name="Group 77981" transform="translate(5.49 -8.124)">
          <path id="Path_62285" data-name="Path 62285" d="M9.934,186.218a2.019,2.019,0,1,0,0-4.039H2.019a2.019,2.019,0,1,0,0,4.039Z" transform="translate(126.709 -148.969)" fill="#054060"/>
          <path id="Path_62286" data-name="Path 62286" d="M163.129,36.265a2.019,2.019,0,0,0,2.019-2.019V26.331a2.019,2.019,0,0,0-4.039,0v7.914a2.019,2.019,0,0,0,2.019,2.019" transform="translate(-46.906 -11.111)" fill="#054060"/>
          <path id="Path_62287" data-name="Path 62287" d="M2.019,38.136a2.013,2.013,0,0,0,1.428-.592l9.785-9.785A2.019,2.019,0,0,0,10.376,24.9L.591,34.689a2.019,2.019,0,0,0,1.428,3.447" transform="translate(124.84 -11.111)" fill="#054060"/>
        </g>
      </g>
    </g>
    <g id="Group_78007" data-name="Group 78007" transform="translate(1257.35 416.219)">
      <path id="Path_62248" data-name="Path 62248" d="M1131.565,569.446a29.425,29.425,0,1,1-29.425-29.425,29.425,29.425,0,0,1,29.425,29.425" transform="translate(-936.756 -471.577)" fill="#2be05e"/>
      <path id="Path_62249" data-name="Path 62249" d="M1308.6,679.335a1.876,1.876,0,0,1-1.875-1.876V647.141a1.876,1.876,0,1,1,3.751,0v30.318a1.876,1.876,0,0,1-1.876,1.876" transform="translate(-1143.217 -564.431)" fill="#fff"/>
      <path id="Path_62250" data-name="Path 62250" d="M1210.153,777.783h-30.318a1.876,1.876,0,1,1,0-3.751h30.318a1.876,1.876,0,1,1,0,3.751" transform="translate(-1029.609 -678.039)" fill="#fff"/>
    </g>
  </g>
</svg>
