<svg xmlns="http://www.w3.org/2000/svg" width="81.788" height="53.537" viewBox="0 0 81.788 53.537">
  <g id="Group_78056" data-name="Group 78056" transform="translate(0 19.244)">
    <g id="Group_78041" data-name="Group 78041" transform="translate(0 -17.244)">
      <g id="Group_78047" data-name="Group 78047" transform="translate(31.685 0)">
        <path id="Path_62241" data-name="Path 62241" d="M199.011,209.209H157.52a3.306,3.306,0,0,1-3.306-3.306V182.837a3.306,3.306,0,0,1,3.306-3.306h41.491a3.306,3.306,0,0,1,3.306,3.306V205.9a3.306,3.306,0,0,1-3.306,3.306" transform="translate(-154.214 -179.531)" fill="#fff"/>
        <path id="Path_62297" data-name="Path 62297" d="M199.011,209.209H157.52a3.306,3.306,0,0,1-3.306-3.306V182.837a3.306,3.306,0,0,1,3.306-3.306h41.491a3.306,3.306,0,0,1,3.306,3.306V205.9a3.306,3.306,0,0,1-3.306,3.306" transform="translate(-154.214 -179.531)" fill="none" stroke="#054060" stroke-width="4"/>
        <g id="Rectangle_31739" data-name="Rectangle 31739" transform="translate(33.279 24.116)" fill="#b3ddf4" stroke="#054060" stroke-width="1">
          <rect width="11.694" height="3.248" rx="1.624" stroke="none"/>
          <rect x="0.5" y="0.5" width="10.694" height="2.248" rx="1.124" fill="none"/>
        </g>
        <g id="Group_78044" data-name="Group 78044" transform="translate(2.746 2.353)">
          <rect id="Rectangle_31737" data-name="Rectangle 31737" width="25.661" height="6.821" rx="3" fill="#b3ddf4"/>
          <g id="Group_78042" data-name="Group 78042" transform="translate(2.274 1.299)">
            <rect id="Rectangle_31734" data-name="Rectangle 31734" width="19.814" height="1.299" rx="0.65" transform="translate(0 0)" fill="#2daef5"/>
            <rect id="Rectangle_31740" data-name="Rectangle 31740" width="13.318" height="1.299" rx="0.65" transform="translate(0 2.599)" fill="#2daef5"/>
          </g>
        </g>
        <g id="Group_78046" data-name="Group 78046" transform="translate(2.746 10.474)">
          <rect id="Rectangle_31730" data-name="Rectangle 31730" width="42.227" height="11.369" rx="4" fill="#b3ddf4"/>
          <rect id="Rectangle_31731" data-name="Rectangle 31731" width="25.661" height="1.299" rx="0.65" transform="translate(2.599 4.872)" fill="#2daef5"/>
          <rect id="Rectangle_31732" data-name="Rectangle 31732" width="34.756" height="1.299" rx="0.65" transform="translate(2.599 2.274)" fill="#2daef5"/>
          <rect id="Rectangle_31733" data-name="Rectangle 31733" width="20.139" height="1.299" rx="0.65" transform="translate(2.599 7.471)" fill="#2daef5"/>
        </g>
      </g>
      <path id="Path_62240" data-name="Path 62240" d="M65.168,335.994,23.846,339.73a3.306,3.306,0,0,1-3.59-3l-2.077-22.972a3.306,3.306,0,0,1,3-3.59L62.5,306.436a3.306,3.306,0,0,1,3.59,3L68.163,332.4a3.306,3.306,0,0,1-3,3.59" transform="translate(-17.417 -288.206)" fill="#e6e6e6"/>
      <path id="Path_62253" data-name="Path 62253" d="M.656,183.491a.656.656,0,0,1,0-1.312H3.227a.656.656,0,1,1,0,1.312Z" transform="translate(0 -169.077)" fill="#054060"/>
      <path id="Path_62254" data-name="Path 62254" d="M161.766,28.194a.656.656,0,0,1-.656-.656V24.968a.656.656,0,1,1,1.312,0v2.571a.656.656,0,0,1-.656.656" transform="translate(-154.477 -17.71)" fill="#054060"/>
      <path id="Path_62255" data-name="Path 62255" d="M3.834,28.8a.654.654,0,0,1-.464-.192L.192,25.432a.656.656,0,0,1,.928-.928L4.3,27.683a.656.656,0,0,1-.464,1.12" transform="translate(0.001 -17.71)" fill="#054060"/>
      <g id="Group_78049" data-name="Group 78049" transform="translate(24.199 9.998)">
        <g id="Group_78050" data-name="Group 78050" transform="translate(0 0)">
          <path id="Path_62298" data-name="Path 62298" d="M27.052,2.6a2.242,2.242,0,0,1,2.239,2.239V23.673h2.6V4.838A4.843,4.843,0,0,0,27.052,0H0V2.6Z" transform="translate(0.487 0.487)" fill="#f7f7f7"/>
          <path id="Path_62298_-_Outline" data-name="Path 62298 - Outline" d="M-1.5-1.5H26.04a5.331,5.331,0,0,1,5.325,5.325V23.148H27.792V3.825A1.754,1.754,0,0,0,26.04,2.073H-1.5ZM30.39,22.173V3.825A4.356,4.356,0,0,0,26.04-.526H-.526V1.1H26.04a2.73,2.73,0,0,1,2.727,2.727V22.173Z" transform="translate(1.5 1.5)" fill="#f7f7f7"/>
        </g>
      </g>
      <g id="Group_78045" data-name="Group 78045" transform="translate(6.349 12.993)">
        <path id="Path_62241-2" data-name="Path 62241" d="M199.011,209.209H157.52a3.306,3.306,0,0,1-3.306-3.306V182.837a3.306,3.306,0,0,1,3.306-3.306h41.491a3.306,3.306,0,0,1,3.306,3.306V205.9a3.306,3.306,0,0,1-3.306,3.306" transform="translate(-154.214 -179.531)" fill="#fff"/>
        <path id="Path_62297-2" data-name="Path 62297" d="M199.011,209.209H157.52a3.306,3.306,0,0,1-3.306-3.306V182.837a3.306,3.306,0,0,1,3.306-3.306h41.491a3.306,3.306,0,0,1,3.306,3.306V205.9a3.306,3.306,0,0,1-3.306,3.306" transform="translate(-154.214 -179.531)" fill="none" stroke="#054060" stroke-width="4"/>
        <g id="Rectangle_31739-2" data-name="Rectangle 31739" transform="translate(33.279 24.116)" fill="#b3ddf4" stroke="#054060" stroke-width="1">
          <rect width="11.694" height="3.248" rx="1.624" stroke="none"/>
          <rect x="0.5" y="0.5" width="10.694" height="2.248" rx="1.124" fill="none"/>
        </g>
        <g id="Group_78044-2" data-name="Group 78044" transform="translate(2.746 2.353)">
          <rect id="Rectangle_31737-2" data-name="Rectangle 31737" width="25.661" height="6.821" rx="3" fill="#b3ddf4"/>
          <g id="Group_78042-2" data-name="Group 78042" transform="translate(2.274 1.299)">
            <rect id="Rectangle_31734-2" data-name="Rectangle 31734" width="19.814" height="1.299" rx="0.65" transform="translate(0 0)" fill="#2daef5"/>
            <rect id="Rectangle_31740-2" data-name="Rectangle 31740" width="13.318" height="1.299" rx="0.65" transform="translate(0 2.599)" fill="#2daef5"/>
          </g>
        </g>
        <g id="Group_78046-2" data-name="Group 78046" transform="translate(2.746 10.474)">
          <rect id="Rectangle_31730-2" data-name="Rectangle 31730" width="42.227" height="11.369" rx="4" fill="#b3ddf4"/>
          <rect id="Rectangle_31731-2" data-name="Rectangle 31731" width="25.661" height="1.299" rx="0.65" transform="translate(2.599 4.872)" fill="#2daef5"/>
          <rect id="Rectangle_31732-2" data-name="Rectangle 31732" width="34.756" height="1.299" rx="0.65" transform="translate(2.599 2.274)" fill="#2daef5"/>
          <rect id="Rectangle_31733-2" data-name="Rectangle 31733" width="20.139" height="1.299" rx="0.65" transform="translate(2.599 7.471)" fill="#2daef5"/>
        </g>
      </g>
    </g>
  </g>
</svg>
